<svg xmlns="http://www.w3.org/2000/svg" xmlns:xlink="http://www.w3.org/1999/xlink" width="400" height="400" viewBox="0 0 400 400"><defs><clipPath id="a"><circle cx="200" cy="200" r="200" fill="#ffd00a" stroke="#707070" stroke-width="1"/></clipPath><clipPath id="c"><rect width="400" height="400"/></clipPath></defs><g id="b" clip-path="url(#c)"><circle cx="200" cy="200" r="200" fill="#ffd00a"/><g clip-path="url(#a)"><g transform="matrix(0.921, -0.391, 0.391, 0.921, -5157.438, -36.062)"><path d="M5064.489,2322.886H4848.446c-4.972,0-12.25-3.978-12.25-9.944V2171.73c0-3.281,4.543-13.425,16.477-13.425l207.838-.249c7.21,0,11.747,5.524,11.747,12.236l1.181,142.151C5073.438,2315.726,5067.771,2322.886,5064.489,2322.886Z" transform="translate(-161.587 -4.443)" fill="#fff"/><path d="M5318.008,2223.7c8.969,1.145,22.785,7.885,28.752,29.762,3.212,11.777,1.359,29.98-1.724,39.532s-14.4,23.475-25.565,26.355" transform="translate(-403.832 -37.447)" fill="#fff"/><path d="M4804.917,2223.186c-20.186,7.914-32.162,23.75-31.633,45.426s8.469,40.032,29.849,49.728" transform="translate(-129.948 -37.189)" fill="#fff"/><rect width="194.186" height="115.403" transform="translate(4697.174 2176.417)" fill="#00b2dd"/><path d="M5012.551,2923.776l28.148,66.489,9.707-1.941,24.266-68.916Z" transform="translate(-250.254 -387.234)" fill="#fff"/><circle cx="48.036" cy="48.036" r="48.036" transform="translate(4745.328 2588.756)" fill="#00b2dd"/><circle cx="21.544" cy="21.544" r="21.544" transform="translate(4771.82 2613.664)" fill="#fff"/><g transform="translate(4764.841 2540.356)"><path d="M5017.723,2937.558a211.872,211.872,0,0,0,7.722,20.3c1.135,2.591,2.3,5.169,3.408,7.77l.188.442c.067.158.216.5.061.144.156.354.3.713.447,1.07q.419,1.013.826,2.032c.6,1.5,1.155,3.02,1.694,4.542.685,1.933,1.334,3.879,1.964,5.83q.519,1.611,1.009,3.229.27.885.53,1.772c.089.305.17.615.268.917a2.871,2.871,0,0,0,.9,1.33,1.72,1.72,0,0,0,2.839-.75,3.068,3.068,0,0,0,.139-1.276,6.108,6.108,0,0,0-.262-1q-.248-.8-.5-1.6-.48-1.51-.984-3.012-.892-2.656-1.89-5.273c-1.16-3.028-2.418-6.02-3.739-8.98-2.387-5.354-5-10.6-7.29-16l-.111-.261c.121.285-.061-.146-.068-.163q-.141-.336-.281-.674-.288-.694-.57-1.388c-.4-.983-.8-1.966-1.186-2.953q-1.321-3.358-2.531-6.758a1.372,1.372,0,0,0-1.646-.935,1.353,1.353,0,0,0-.935,1.646Z" transform="translate(-5017.668 -2935.864)" fill="#221f1f"/></g><g transform="translate(4802.084 2540.348)"><path d="M5111.793,2936.507c-1.851,3.336-3.431,6.83-5.086,10.268-1.293,2.685-2.531,5.386-3.692,8.13-2.242,5.3-4.325,10.673-6.324,16.072q-1.028,2.775-2.056,5.55-.565,1.522-1.132,3.043c-.212.568-.432,1.133-.607,1.714-.088.3-.2.6-.265.9a3.756,3.756,0,0,0,.065,1.621,1.907,1.907,0,0,0,2.788,1.134,5.931,5.931,0,0,0,.775-.643,3.332,3.332,0,0,0,.6-1.038c.272-.628.535-1.256.765-1.9q.51-1.433,1.019-2.866.888-2.5,1.77-5c1-2.838,1.986-5.683,3-8.519,1.875-5.272,3.919-10.477,5.992-15.674q.52-1.3,1.05-2.6.272-.67.548-1.339l.118-.288a1.725,1.725,0,0,1,.084-.2l.319-.743c.941-2.182,1.907-4.346,2.757-6.565a1.363,1.363,0,0,0-2.488-1.048Z" transform="translate(-5092.57 -2935.847)" fill="#221f1f"/></g><g transform="translate(4740.716 2585.026)"><path d="M5030.762,3029.633q-1.088-.376-2.194-.7a1.737,1.737,0,0,0-.284-.081c-.282-.031.489.226-.137-.039a3.822,3.822,0,0,0-.647-.176c-.383-.09-.762-.193-1.145-.281q-.538-.125-1.077-.236c-.171-.036-.33-.085-.5-.128-.275-.071-.464-.036-.7-.089.653.142-.1-.008-.163-.017-.83-.111-1.667-.23-2.5-.282-.423-.026.138.036.156.03a2.993,2.993,0,0,1-.75-.084c-.173-.009-.346-.009-.52-.012q-.594-.012-1.188-.008-1.15.007-2.3.069c-1.692.092-3.375.281-5.052.527a51.062,51.062,0,0,0-17.753,6.21,48.411,48.411,0,0,0-14.26,12.259,50.217,50.217,0,0,0-8.766,17.609,51.711,51.711,0,0,0-1.523,19.209,50.426,50.426,0,0,0,2.009,9.713,52.818,52.818,0,0,0,3.336,7.991,50.164,50.164,0,0,0,8.073,11.53,43.157,43.157,0,0,0,11.729,8.819,50.55,50.55,0,0,0,16.458,4.936,75.192,75.192,0,0,0,20.494-.439,57.957,57.957,0,0,0,16.854-4.842,37.366,37.366,0,0,0,10.568-7.537,55.576,55.576,0,0,0,6.878-8.952c.924-1.439,1.82-2.9,2.738-4.341a28.666,28.666,0,0,0,2.438-4.952,44.778,44.778,0,0,0,2.723-12.708,56.224,56.224,0,0,0-.958-15.481,53.484,53.484,0,0,0-11.563-24.1,41.221,41.221,0,0,0-6.148-6.16,51.519,51.519,0,0,0-15.7-8.052,58.809,58.809,0,0,0-18.249-3.136,36.3,36.3,0,0,0-8.367,1.049,2.49,2.49,0,0,0-1.724,3.036,2.52,2.52,0,0,0,3.036,1.723c.616-.145,1.244-.239,1.87-.336.4-.062-.276.035-.286.037.084-.015.171-.022.256-.033.15-.019.3-.036.451-.052q.521-.056,1.044-.1c1.374-.1,2.759-.129,4.136-.11,1.417.019,2.833.108,4.242.254q.54.056,1.077.123l.288.037c.291.036-.376-.048-.335-.046.214.012.437.062.648.093q1.088.162,2.168.365a62.992,62.992,0,0,1,8.689,2.289q1.031.35,2.05.738a20.555,20.555,0,0,1,2.059.823c.037.019-.566-.242-.3-.128l.259.111.451.2q.51.226,1.016.462.929.434,1.843.9c1.18.609,2.337,1.263,3.459,1.973q.781.5,1.538,1.028.365.259.725.526c.1.073.5.379.106.078-.412-.318.1.077.188.151a42.3,42.3,0,0,1,6.036,6.16q.36.439.711.885c.062.079.123.159.185.237.017.021-.353-.461-.182-.233.135.179.271.357.405.537q.663.891,1.286,1.811,1.236,1.825,2.313,3.753,1.043,1.871,1.927,3.826c.133.294.261.59.39.885.179.409-.237-.57-.023-.055q.118.284.233.571.379.945.722,1.905a52.919,52.919,0,0,1,2.106,7.739q.182.938.328,1.882c.049.311.092.623.138.935.042.284-.063-.445-.051-.382.015.081.022.166.032.248q.031.248.061.5.22,1.858.311,3.728a52.922,52.922,0,0,1-.126,7.089q-.07.825-.168,1.647c-.015.126-.03.252-.046.378-.076.6.071-.5.022-.156-.04.282-.08.564-.124.845q-.239,1.531-.581,3.042a36.875,36.875,0,0,1-1.666,5.454q-.056.141-.112.28c-.021.052-.044.105-.065.158-.1.242.224-.516.18-.424-.1.2-.177.41-.269.613q-.249.55-.523,1.089c-.354.692-.75,1.355-1.165,2.012-1.814,2.869-3.559,5.788-5.6,8.507l-.208.275c-.073.1-.331.429-.008.013s.065-.086-.011.012l-.243.307q-.412.514-.837,1.016-.885,1.041-1.841,2.018-.975.992-2.026,1.907-.561.487-1.143.949c-.089.071-.179.139-.268.21.723-.578.3-.232.132-.1q-.3.224-.6.441a36.386,36.386,0,0,1-5.6,3.3c-.528.251-1.063.486-1.6.721-.281.123.569-.235.283-.12l-.167.069q-.224.093-.45.182-.458.183-.922.355-1.837.686-3.724,1.224a67.367,67.367,0,0,1-8.988,1.886l-.579.081c-.348.049.531-.069.18-.024l-.253.033q-.686.088-1.371.165-1.331.149-2.665.263-2.541.215-5.091.264a65.329,65.329,0,0,1-9.281-.493c-.285-.035.361.05.323.044-.094-.014-.188-.026-.283-.04q-.246-.035-.492-.073-.557-.084-1.111-.181-1.053-.182-2.1-.408-1.948-.422-3.859-1-1.854-.565-3.655-1.288l-.4-.165c-.367-.149.259.11.265.113-.077-.029-.152-.065-.227-.1q-.451-.194-.9-.4-.825-.379-1.634-.792a40.769,40.769,0,0,1-5.983-3.749l-.181-.138c-.214-.158.339.258.288.223-.125-.083-.24-.187-.358-.281q-.355-.282-.7-.571-.65-.539-1.277-1.1-1.263-1.138-2.43-2.377t-2.212-2.536c-.161-.2-.32-.4-.478-.6-.245-.311.417.546.061.077q-.133-.175-.264-.35-.491-.659-.958-1.335a50.922,50.922,0,0,1-3.411-5.706q-.754-1.468-1.423-2.979c-.082-.185-.151-.379-.242-.559.02.039.237.573.077.18-.028-.071-.058-.141-.087-.211q-.229-.563-.443-1.133-.4-1.066-.748-2.153a46.264,46.264,0,0,1-1.183-4.476q-.237-1.114-.418-2.239c-.061-.375-.115-.751-.169-1.127-.047-.331.069.546.029.215-.009-.076-.019-.151-.028-.226q-.042-.34-.079-.679a49.564,49.564,0,0,1-.14-9.187q.091-1.175.237-2.346c.009-.076.019-.151.028-.227.054-.427-.02.172-.028.211.037-.172.049-.352.076-.527q.09-.6.194-1.2.4-2.286,1-4.529.594-2.2,1.389-4.342.2-.534.41-1.063.1-.247.2-.493c.037-.091.086-.187.117-.281-.067.205-.192.451-.041.1q.451-1.047.952-2.069,1.02-2.08,2.239-4.052.6-.968,1.247-1.906.324-.469.66-.929c.1-.143.209-.286.316-.428q.091-.122.183-.243c.052-.069.328-.431.087-.115s.116-.145.186-.231q.189-.239.383-.474.354-.433.721-.856.754-.873,1.551-1.705,1.54-1.608,3.233-3.061.422-.362.854-.714.2-.165.4-.327c.078-.062.155-.124.233-.185s.42-.326.106-.085.141-.106.228-.172q.208-.157.417-.311.478-.353.964-.693,1.857-1.3,3.83-2.42,1.938-1.1,3.97-2.027c.339-.154.68-.3,1.021-.451.288-.125-.448.186-.157.066l.206-.086q.31-.128.621-.251,1.037-.412,2.092-.778a52.006,52.006,0,0,1,8.79-2.195c.367-.059.735-.1,1.1-.164.016,0-.515.066-.25.034l.295-.037q.3-.037.591-.069,1.146-.127,2.295-.2c1.482-.094,2.969-.1,4.452-.119.738-.01,1.484-.02,2.222.024.074,0,.147.017.222.019.233.009.895-.2.5-.044-.212.085-.1.016.017.024.1.006.2,0,.3,0q.552.006,1.105.027l.515.022c.1,0,.2.013.294.015.036,0,.28-.006.058-.008-.32,0,.366.05.294.04a2.646,2.646,0,0,0,.382.012c.194.006.391.028.585.044.729.059,1.457.138,2.184.233a1.421,1.421,0,0,0,1.413-1.248,1.456,1.456,0,0,0-1.031-1.579Z" transform="translate(-4969.149 -3025.703)" fill="#221f1f"/></g><g transform="translate(4769.459 2612.206)"><path d="M5052.717,3081.58c-.4-.194-.806-.369-1.218-.536-.039-.016-.329-.125-.152-.058.252.1-.272-.118-.4-.154-.211-.058-.43-.1-.645-.14a17.555,17.555,0,0,0-2.487-.307,16.655,16.655,0,0,0-4.96.512,19.548,19.548,0,0,0-8.736,4.919c-5.091,4.983-7.246,12.376-7.158,19.356a20.694,20.694,0,0,0,.9,6.132,23.03,23.03,0,0,0,14.579,14.8,27.218,27.218,0,0,0,9.279,1.276,30.775,30.775,0,0,0,9.329-1.469,20.949,20.949,0,0,0,6.854-3.883,23.377,23.377,0,0,0,4.417-5.245,53.774,53.774,0,0,0,3.08-5.737,20.482,20.482,0,0,0,1.823-4.926,17.741,17.741,0,0,0,.083-6.163,21.911,21.911,0,0,0-4.583-10.007,20.577,20.577,0,0,0-5.737-4.889,33.472,33.472,0,0,0-15.009-4.209,28.305,28.305,0,0,0-13.265,2.038c-.341.155-.676.323-1,.509-.152.087-.3.178-.449.273-.075.049-.15.1-.225.15-.1.072-.19.144-.293.223-.781.6.424-.307.08-.069a2.354,2.354,0,0,0,2.376,4.065,7.065,7.065,0,0,1,.889-.5c.153-.076.31-.143.465-.216.25-.117-.672.269-.227.1.1-.037.193-.076.29-.112a21.115,21.115,0,0,1,2.446-.711q.661-.16,1.329-.288.359-.067.721-.125l.344-.053.148-.022c.423-.064-.585.075-.318.042,1.049-.126,2.1-.218,3.155-.253,1.1-.037,2.2-.017,3.306.04q.864.044,1.726.128.406.04.811.088c.207.025.816.119-.1-.016l.465.067a31.881,31.881,0,0,1,6.774,1.758c.234.091,1.168.512.314.12.265.122.533.234.8.358q.785.37,1.542.795t1.465.9q.331.223.652.458c.107.079.212.161.319.239-.688-.5-.226-.173-.066-.044a17.365,17.365,0,0,1,2.415,2.379c.085.1.166.207.25.308.188.228-.358-.482-.187-.241.033.046.068.091.1.137q.271.367.521.749a24.045,24.045,0,0,1,1.355,2.339,4.746,4.746,0,0,1,.524,1.115c-.009-.053-.219-.544-.052-.12l.1.242c.093.241.183.484.266.729a16.858,16.858,0,0,1,.644,2.456c.019.1.113.753.06.327-.05-.4.021.209.031.329q.058.622.061,1.247t-.05,1.25c-.008.1-.085.757-.029.334.049-.371.009-.074,0,0-.024.139-.047.278-.074.417a17.844,17.844,0,0,1-.729,2.5c-.091.262.073-.172.082-.184a2.052,2.052,0,0,0-.147.332c-.063.137-.127.273-.192.408q-.183.386-.368.773c-.447.936-.9,1.868-1.384,2.787s-.981,1.814-1.53,2.688q-.405.646-.844,1.269c-.136.193-.275.383-.417.572a1.644,1.644,0,0,0-.123.161c-.032.058.393-.5.236-.305-.1.117-.188.237-.285.354a18.906,18.906,0,0,1-2.069,2.162q-.289.256-.59.5c-.086.07-.46.361-.075.063s-.023.014-.126.088q-.65.472-1.343.88-.722.427-1.481.781c-.122.057-.244.113-.367.167a2.038,2.038,0,0,1-.213.093c-.055.016.571-.231.323-.138-.3.113-.595.235-.9.341a23.324,23.324,0,0,1-3.728.965c-.329.058-.66.1-.99.156.8-.133.1-.015-.074.005q-.3.035-.6.064c-.8.077-1.594.126-2.394.15a41.542,41.542,0,0,1-4.622-.183c-.033,0,.579.083.3.041l-.279-.041q-.242-.036-.483-.079-.505-.088-1.008-.2c-.643-.142-1.282-.31-1.912-.505-.6-.188-1.185-.42-1.776-.641-.245-.091.343.148.3.128-.072-.036-.149-.065-.224-.1q-.194-.086-.386-.176-.433-.2-.855-.427-.771-.407-1.5-.882c-.222-.144-.441-.292-.657-.444-.108-.076-.214-.151-.319-.229l-.179-.133c-.26-.19.2.161.227.177a8.59,8.59,0,0,1-1.25-1.057q-.586-.538-1.128-1.121-.526-.566-1.01-1.169c-.07-.088-.34-.436-.062-.076s.009.008-.055-.078q-.236-.319-.459-.647a21.114,21.114,0,0,1-1.423-2.411q-.153-.3-.3-.611l-.129-.283c-.05-.112-.224-.521-.038-.08s.028.064-.013-.038-.085-.212-.125-.319q-.113-.294-.216-.591a17.526,17.526,0,0,1-.619-2.24c-.033-.162-.063-.323-.091-.486-.013-.079-.024-.158-.037-.237-.073-.45.062.558.038.292-.054-.612-.111-1.221-.138-1.835a30.424,30.424,0,0,1,.17-4.855c.012-.1.036-.217.039-.322,0,0-.068.471-.027.208.028-.187.055-.374.085-.561q.1-.639.238-1.272.25-1.182.609-2.338.166-.537.358-1.065.1-.263.2-.525c.039-.1.078-.2.119-.3l.04-.1c-.124.312.108-.238.146-.317q.133-.291.274-.578.266-.538.561-1.06a20.528,20.528,0,0,1,1.3-2.019c.047-.065.095-.129.143-.194.234-.32-.019.012-.053.065a4.812,4.812,0,0,1,.343-.425q.383-.46.8-.891a18.267,18.267,0,0,1,1.647-1.523l.175-.141c.3-.242-.045.029-.086.066.157-.139.337-.255.5-.389.228-.187-.325.236-.084.063.306-.219.607-.441.922-.649a18.666,18.666,0,0,1,1.942-1.122q.266-.134.537-.258c.072-.033.57-.245.3-.137s.254-.1.313-.12q.278-.106.561-.2a20.031,20.031,0,0,1,2.135-.6c.334-.074.67-.134,1.008-.19s.013,0-.049,0l.22-.026q.33-.037.661-.059a14.512,14.512,0,0,1,2.05.006c.195.014.388.034.582.056-.095-.011-.361-.047.076.011a4.005,4.005,0,0,0,.431.03c.168,0,.337.021.5.035l.286.029c.029,0,.268.036.064.007a1.4,1.4,0,0,0,1.616-.793,1.362,1.362,0,0,0-.561-1.711Z" transform="translate(-5026.958 -3080.365)" fill="#221f1f"/></g><path d="M5079.055,2640.46c-2.32,61.324-34.653,118.329-126.136,119.478-93.968,1.181-117.171-66.109-121.6-117.293-.5-19.583.843-53.281,2.107-68.149s4.506-12.512,28.239-16.464,156.445-1.054,194.052-.728c11.617.1,21.869,13.572,22.342,18.187C5079.386,2588.418,5079.669,2624.216,5079.055,2640.46Z" transform="translate(-159.082 -204.507)" fill="#fff"/><g transform="translate(4697.113 2452.581)"><path d="M4883.056,2765.345c.033.021.064.044.095.068l-.649-.5c.091.071.166.157.253.232a1.643,1.643,0,0,1,.226.233l-.474-.614a4.675,4.675,0,0,0,.585.775,1.279,1.279,0,0,1,.13.135l-.436-.565c.017.021.032.042.047.064a2.8,2.8,0,0,0,.989.991.575.575,0,0,1,.05.032l-.514-.4q.13.1.264.2a1.254,1.254,0,0,0,.555.323,1.778,1.778,0,0,0,.976.216c-.054,0,.5-.054.719-.1l.029-.007c.041-.01.617-.254.657-.275a3.256,3.256,0,0,0,.6-.476c.175-.2.331-.416.486-.625.02-.026.039-.053.057-.08s.02-.031.028-.047l.3-.707.005-.021c.021-.139.039-.277.057-.417s.038-.279.056-.418c0-.02,0-.039.005-.058a1.383,1.383,0,0,0,0-.225,7.162,7.162,0,0,0-.141-1.029,3.575,3.575,0,0,0-.411-.948,7.777,7.777,0,0,0-.631-.835,3.229,3.229,0,0,0-1.425-.83l-.857-.115a3.215,3.215,0,0,0-1.629.44,3.109,3.109,0,0,0-1.541,3.216,2.4,2.4,0,0,0,.383,1.2,3.24,3.24,0,0,0,1.158,1.158Z" transform="translate(-4881.456 -2759.331)" fill="#221f1f"/></g><g transform="translate(4711.703 2501.41)"><path d="M4912.4,2863.549c.032.021.063.044.094.068l-.649-.5c.091.072.166.158.253.233a1.665,1.665,0,0,1,.226.232l-.474-.614a4.654,4.654,0,0,0,.585.775,1.258,1.258,0,0,1,.13.135l-.436-.565c.016.021.031.042.046.064a2.8,2.8,0,0,0,.989.991c.017.01.034.02.049.032l-.514-.4c.087.069.175.137.264.2a1.251,1.251,0,0,0,.555.323,1.778,1.778,0,0,0,.975.216c-.053,0,.5-.054.72-.1l.029-.007c.041-.009.617-.254.657-.276a3.239,3.239,0,0,0,.6-.475c.175-.2.331-.416.486-.626.02-.026.039-.052.057-.079s.02-.031.028-.047l.3-.707,0-.021c.021-.139.039-.278.057-.417s.038-.279.056-.419c0-.019,0-.038.005-.058a1.437,1.437,0,0,0,0-.225,7.287,7.287,0,0,0-.141-1.029,3.614,3.614,0,0,0-.411-.948,7.753,7.753,0,0,0-.631-.835,3.222,3.222,0,0,0-1.424-.83l-.858-.115a3.212,3.212,0,0,0-1.629.44,3.109,3.109,0,0,0-1.541,3.216,2.4,2.4,0,0,0,.383,1.2,3.242,3.242,0,0,0,1.158,1.158Z" transform="translate(-4910.799 -2857.535)" fill="#221f1f"/></g><g transform="translate(4669.146 2354.686)"><path d="M5071.678,2563.827c1.589,19.382,3.381,38.766,2.92,58.239-.209,8.856-.873,17.7-1.818,26.5a262.219,262.219,0,0,1-4.335,28.635c-3.443,15.58-9.415,30.671-20.012,42.809A108.071,108.071,0,0,1,5031,2735.484a172.355,172.355,0,0,1-18.549,12.242,105.75,105.75,0,0,1-46.445,13.067,219.891,219.891,0,0,1-29.691-.947,195.684,195.684,0,0,1-24.243-3.358c-13.846-2.94-26.92-8.234-37.887-17.1a104.957,104.957,0,0,1-16.131-16.567,139.828,139.828,0,0,1-15.4-23.841,97.25,97.25,0,0,1-8.046-22.915,201.837,201.837,0,0,1-3.509-25.927,268.51,268.51,0,0,1-.745-33.391c.442-11.564,1.367-23.1,2.126-34.648q.568-8.631.886-17.266c.119-3.1-4.7-3.1-4.82,0-.9,23.559-3.9,47.064-3.249,70.67a283.92,283.92,0,0,0,2.6,30.411,117.611,117.611,0,0,0,5.68,24.313,115.945,115.945,0,0,0,12.583,24.441,140.061,140.061,0,0,0,17,21.346,89.315,89.315,0,0,0,37.188,22.518c16.234,5.036,33.557,6.38,50.449,7.148,18.476.84,37-1.43,54.054-8.84a123.853,123.853,0,0,0,19.745-11.022,185.44,185.44,0,0,0,18.844-14.212c12.29-10.8,20.838-24.708,25.872-40.213a159.775,159.775,0,0,0,5.965-27.123c1.353-9.623,2.42-19.307,3.027-29.006,1.153-18.418.205-36.726-1.788-55.051-.608-5.6-1.286-11.184-2.078-16.758-.221-1.559-2.895-1.2-2.766.374Z" transform="translate(-4825.21 -2562.448)" fill="#221f1f"/></g><path d="M4790.516,2544.329c31.676-.66,253.431-2.262,273.348-.88s11.163,21.844-5.267,24.143-243.967,1.135-268.648-.851C4767.617,2564.943,4776.9,2544.613,4790.516,2544.329Z" transform="translate(-131.577 -197.936)" fill="#00b2dd"/><g transform="translate(4641.045 2344.11)"><path d="M5062.4,2542.083c-20.739-.651-41.481-.786-62.229-.845q-32.852-.094-65.7-.038-32.975.057-65.951.209-31.488.134-62.975.314c-5.16.026-10.349-.1-15.5.192-5.077.29-10.645,1.1-14.906,4.1-3.5,2.461-6.4,6.36-6.444,10.794-.04,4.417,3.048,7.9,6.922,9.613,4.138,1.827,8.795,2.145,13.264,2.241,5.837.124,11.675.211,17.513.314q16.67.292,33.341.563,32.109.517,64.219,1.033c20.27.338,40.531.761,60.805.617,20.065-.143,40.129-.577,60.186-1.184q13.727-.415,27.449-.96c4.254-.171,8.606-.055,12.554-1.878a12.12,12.12,0,0,0,4.7-3.8,15.656,15.656,0,0,0,2.346-6.115c.982-4.333,1.25-8.229-1.517-11.979a2.242,2.242,0,0,0-2.974-.78,2.188,2.188,0,0,0-.779,2.973,7.223,7.223,0,0,1,1.644,5.108,28.272,28.272,0,0,1-1.342,6.2c-1.121,3.49-4.787,5.019-8.166,5.383-4.077.44-8.266.378-12.363.532q-6.572.247-13.146.464-29.011.955-58.039,1.34c-19.089.233-38.159.05-57.246-.281q-31.556-.545-63.114-1.035-32.339-.517-64.678-1.062c-5.239-.091-20.194-.546-16.529-9.654,1.655-4.111,5.927-6.2,9.985-7.155,4.97-1.173,10.177-.986,15.25-1.014q30.181-.17,60.362-.385,31.787-.235,63.575-.453,31.935-.218,63.869-.36c20.5-.1,40.991-.126,61.486-.279,4.711-.035,9.421-.158,14.13-.24a1.243,1.243,0,0,0,0-2.485Z" transform="translate(-4768.693 -2541.178)" fill="#221f1f"/></g><g transform="translate(4675.492 2385.553)"><path d="M5081.4,2627.29c-15.551-.934-31.189-.709-46.766-.858q-23.659-.226-47.318-.47-23.64-.211-47.28-.486-23.681-.268-47.361-.5c-15.615-.169-31.237-.481-46.854-.439l-5.746.017c-2.8.008-2.8,4.285,0,4.346,15.587.344,31.178.439,46.767.612q23.659.261,47.317.519,23.64.25,47.28.407,23.681.171,47.361.144c15.614-.025,31.248.063,46.854-.458,1.917-.063,3.832-.219,5.746-.343a1.243,1.243,0,0,0,0-2.485Z" transform="translate(-4837.973 -2624.528)" fill="#221f1f"/></g><g transform="translate(4675.417 2408.963)"><path d="M4874.392,2671.791c-9.154-.1-18.311-.2-27.465-.179q-3.466.007-6.932.011a2.173,2.173,0,1,0,0,4.346c9.138.181,18.275.265,27.415.344q3.491.03,6.982.066a2.294,2.294,0,0,0,0-4.588Z" transform="translate(-4837.819 -2671.61)" fill="#221f1f"/></g><g transform="translate(4889.452 2452.578)"><path d="M5269.47,2760.274c-.189.238-.384.479-.56.727-.023.032-.044.065-.064.1s-.039.069-.058.1-.021.043-.03.065l-.319.756-.007.021c-.01.038-.016.077-.021.115-.047.3-.1.611-.121.915a1.46,1.46,0,0,0,0,.236,3.321,3.321,0,0,0,.446,1.659c.017.027.037.054.055.08.154.21.314.431.486.628a2.289,2.289,0,0,0,.331.27,1.888,1.888,0,0,0,.932.488l.024.006c.127.025.267.038.388.054s.229.033.343.046l.668-.09.6-.253c.175-.131.347-.265.518-.4l-.514.4c.016-.012.033-.021.05-.032a2.794,2.794,0,0,0,.988-.991c.016-.022.031-.043.047-.064l-.437.565a1.34,1.34,0,0,1,.131-.135,1,1,0,0,0,.238-.306c.085-.1.166-.209.244-.317l.029-.048c.023-.035.047-.07.073-.1l-.474.614a1.64,1.64,0,0,1,.226-.233c.087-.075.162-.161.253-.232l-.649.5c.031-.024.063-.046.095-.068a3.24,3.24,0,0,0,1.158-1.158l.326-.771a3.261,3.261,0,0,0,0-1.717,3.616,3.616,0,0,0-1.483-1.929,2.4,2.4,0,0,0-1.2-.383,2.441,2.441,0,0,0-1.287.058,3.228,3.228,0,0,0-1.424.83Z" transform="translate(-5268.284 -2759.326)" fill="#221f1f"/></g><g transform="translate(4874.862 2501.407)"><path d="M5240.126,2858.478c-.19.238-.384.479-.561.727-.023.032-.044.064-.064.1s-.039.069-.058.1-.021.043-.03.065l-.319.756-.007.021c-.009.038-.015.077-.021.115-.047.3-.1.612-.121.915a1.463,1.463,0,0,0,0,.236,3.32,3.32,0,0,0,.445,1.659c.018.027.037.054.056.08.154.21.314.431.486.627a2.216,2.216,0,0,0,.331.27,1.888,1.888,0,0,0,.932.488l.024.005c.127.025.267.038.388.054s.229.033.344.046l.668-.09.6-.253q.261-.2.518-.4l-.513.4a.584.584,0,0,1,.049-.032,2.794,2.794,0,0,0,.989-.992c.015-.022.03-.043.047-.064l-.437.565a1.2,1.2,0,0,1,.131-.135,1,1,0,0,0,.238-.306c.085-.1.167-.209.244-.317.01-.016.019-.032.03-.048.023-.036.047-.07.073-.1l-.474.614a1.6,1.6,0,0,1,.226-.233c.087-.075.162-.161.253-.233l-.65.5c.032-.024.063-.046.1-.067a3.247,3.247,0,0,0,1.157-1.158l.326-.771a3.251,3.251,0,0,0,0-1.717,3.614,3.614,0,0,0-1.483-1.929,2.407,2.407,0,0,0-1.2-.383,2.441,2.441,0,0,0-1.287.058,3.225,3.225,0,0,0-1.424.83Z" transform="translate(-5238.94 -2857.53)" fill="#221f1f"/></g><g transform="translate(4792.042 2387.982)"><path d="M5075.723,2796.861c.627-7.058.595-14.141.694-21.222.084-5.972.142-11.944.225-17.916q.2-14.6.414-29.208.2-12.75.477-25.5.289-14.156.51-28.313.137-8.606.25-17.214c.09-6.823.271-13.655.216-20.478q-.021-2.751-.045-5.5c-.024-2.8-4.269-2.8-4.347,0-.363,13.042-.407,26.092-.612,39.137-.153,9.737-.35,19.472-.519,29.209q-.22,12.749-.412,25.5-.193,14.157-.2,28.313c-.01,5.738.041,11.476.079,17.214.046,6.821.041,13.665.368,20.478.089,1.841.243,3.667.416,5.5a1.243,1.243,0,0,0,2.485,0Z" transform="translate(-5072.373 -2629.412)" fill="#221f1f"/></g><path d="M5079.818,2730.864a68.634,68.634,0,0,1-68.634,68.634c-37.906,0-67.155-34.357-67.155-72.263s29.249-65.005,67.155-65.005A68.634,68.634,0,0,1,5079.818,2730.864Z" transform="translate(-215.804 -257.93)" fill="#ffd00a"/><g transform="translate(4724.619 2402.488)"><path d="M5010.087,2659.88a122.886,122.886,0,0,0-13.624.64q-3.221.346-6.423.855c-.469.075-.936.153-1.4.234q-.366.063-.732.13c-.107.02-.217.035-.323.059.519-.116-.267.042-.484.084q-1.38.268-2.754.568a66.553,66.553,0,0,0-19.143,7.391,51.112,51.112,0,0,0-13.474,11.277,58.614,58.614,0,0,0-9.087,15.306,78.221,78.221,0,0,0-5.335,20.257,75.506,75.506,0,0,0,1.482,26.1,78.329,78.329,0,0,0,10.157,24.359,71.017,71.017,0,0,0,17.764,19.149,67.117,67.117,0,0,0,22.106,10.591,73.084,73.084,0,0,0,24.674,2.3,79.049,79.049,0,0,0,24.909-6.125,76.914,76.914,0,0,0,21.9-14.005,53.95,53.95,0,0,0,12.662-17.859,71.168,71.168,0,0,0,5.565-21.644,87.729,87.729,0,0,0-.666-22.046,83.687,83.687,0,0,0-5.446-19.738,59.147,59.147,0,0,0-9.715-16.222A60.585,60.585,0,0,0,5044.777,2668a84.6,84.6,0,0,0-23.454-8.045,80.1,80.1,0,0,0-12.611-1.351,58.739,58.739,0,0,0-6.009.139q-.71.057-1.42.128c-.25.025-.5.052-.749.081l-.332.039c-.23.027-.462.058-.692.092q.46-.06.2-.028c-1.1.129-2.205.314-3.3.521a52.686,52.686,0,0,0-5.4,1.316c-.9.273-1.795.583-2.676.921q-.639.245-1.271.509-.451.188-.9.382a2.124,2.124,0,0,0-.364.159c-.242.168.4-.147-.061.039a1.922,1.922,0,0,0-1.309,2.3,1.893,1.893,0,0,0,2.3,1.309,39.43,39.43,0,0,1,5.385-1.606,46.293,46.293,0,0,1,5.633-1.072c-.629.075.162-.018.307-.035l.657-.075c.5-.053.99-.107,1.486-.149.973-.083,1.945-.161,2.921-.207,1.976-.092,3.953-.131,5.93-.073q3.005.087,6,.422c.486.054.973.116,1.458.176.336.042-.443-.062-.107-.015l.428.06q.386.055.771.114,1.5.229,2.991.515a83.686,83.686,0,0,1,11.708,3.139q1.42.493,2.821,1.037.676.262,1.349.537l.63.26c.4.165-.038,0-.09-.038a3.294,3.294,0,0,0,.469.2q2.7,1.168,5.3,2.533a67.935,67.935,0,0,1,9.527,6.015,2.745,2.745,0,0,1,.247.188c-.376-.368-.222-.173-.106-.082.162.128.324.254.485.383q.568.453,1.125.922,1.009.849,1.975,1.746a46.007,46.007,0,0,1,3.536,3.665q.335.39.661.789c.11.135.221.27.329.407.068.085.487.625.215.27s.088.117.14.185q.161.214.319.429.321.435.631.876c.831,1.181,1.609,2.4,2.34,3.643q1.148,1.952,2.146,3.987.5,1.016.967,2.049.25.554.491,1.113c.07.162.3.734.031.066.084.211.175.421.262.631a79.964,79.964,0,0,1,3.157,9.354,87.714,87.714,0,0,1,2.112,10.1q.044.3.087.593c.014.1.027.2.042.3.058.407-.019-.131-.023-.176.044.449.116.9.169,1.344q.16,1.35.277,2.7.227,2.609.3,5.229a82.276,82.276,0,0,1-.393,10.663q-.066.645-.143,1.289-.037.3-.075.6c-.013.1-.037.2-.04.3.021-.667.026-.191,0-.018q-.185,1.319-.417,2.631-.464,2.617-1.121,5.193t-1.519,5.067q-.431,1.247-.913,2.475c-.156.4-.322.79-.481,1.186-.116.29.186-.43.061-.144-.04.092-.079.185-.119.277q-.149.345-.3.688a54.537,54.537,0,0,1-5.189,9.146q-.371.524-.754,1.04c-.121.162-.243.322-.364.483-.246.326.071-.073.088-.112a2.1,2.1,0,0,1-.281.358q-.826,1.044-1.708,2.043a49.429,49.429,0,0,1-3.777,3.84c-.734.668-1.49,1.313-2.256,1.944q-.575.475-1.159.938l-.365.288c-.057.044-.37.289-.131.1s-.075.058-.132.1q-.22.168-.443.336-2.569,1.936-5.292,3.655-2.646,1.67-5.422,3.123-1.434.749-2.9,1.439-.648.305-1.3.6-.367.164-.735.325l-.329.142c-.24.1-.3.131-.022.011a73.462,73.462,0,0,1-11.741,3.854q-2.969.714-5.99,1.185-.387.06-.773.116c-.082.012-.8.113-.469.067.387-.053-.181.023-.211.027l-.344.043q-.43.053-.861.1-1.46.163-2.928.267a72.5,72.5,0,0,1-12-.139q-.723-.07-1.443-.153-.382-.045-.762-.093c-.109-.014-.229-.041-.338-.044.373.01.216.029-.069-.011q-1.433-.2-2.858-.467-2.925-.54-5.8-1.331t-5.652-1.832q-.677-.253-1.347-.521-.354-.142-.708-.288a1.561,1.561,0,0,1-.314-.131c.193.159.28.119-.005,0q-1.368-.588-2.709-1.237a64.151,64.151,0,0,1-10.25-6.208q-.278-.207-.554-.416l-.275-.21c.4.306.077.059-.023-.019q-.616-.482-1.22-.98-1.181-.972-2.313-2-2.344-2.127-4.477-4.472-1.069-1.173-2.084-2.4-.494-.594-.974-1.2c-.15-.189-.3-.381-.449-.571.282.357.077.1.019.023l-.329-.434q-1.916-2.543-3.6-5.248t-3.142-5.552q-.727-1.422-1.394-2.875-.324-.705-.634-1.417-.145-.335-.288-.672c.179.424.049.117.013.028-.069-.169-.14-.338-.208-.507a77.154,77.154,0,0,1-3.82-12.2c-.466-2.08-.836-4.179-1.136-6.289.072.506-.021-.163-.04-.314-.03-.242-.059-.483-.087-.725q-.094-.815-.17-1.632-.154-1.633-.233-3.271a72.1,72.1,0,0,1,.5-12.694c.013-.1.064-.433-.006.047.018-.119.034-.239.051-.359q.051-.36.107-.718.125-.806.269-1.61.289-1.605.655-3.2c.362-1.57.774-3.13,1.222-4.678a79.49,79.49,0,0,1,2.9-8.321c.141-.339-.208.488.018-.041.064-.15.128-.3.195-.449.146-.335.294-.669.446-1q.438-.964.91-1.911.932-1.871,2-3.671,1.055-1.776,2.244-3.467a16.631,16.631,0,0,1,1.22-1.656c-.445.488-.086.111.022-.026s.219-.277.33-.414q.333-.412.673-.817a47.952,47.952,0,0,1,5.882-5.866q.395-.33.8-.653l.381-.3a1.486,1.486,0,0,1,.147-.115q.859-.654,1.745-1.271,1.816-1.265,3.734-2.373,1.994-1.154,4.076-2.142,1.075-.513,2.171-.984a1.282,1.282,0,0,1,.254-.108c-.329.038-.3.127-.119.05s.344-.143.516-.213q.62-.253,1.243-.494a100.982,100.982,0,0,1,21.509-5.442c1.975-.292,3.909-.531,6-.774,2.245-.261,4.453-.48,6.713-.663a1.314,1.314,0,0,0,0-2.626Z" transform="translate(-4936.775 -2658.587)" fill="#221f1f"/></g><g transform="translate(4543.281 2239.169)"><path d="M4572.435,2334.614q2.489,5.358,4.989,10.709,3.161,6.765,6.338,13.522,3.48,7.4,6.983,14.788,3.491,7.361,7.019,14.7c2.1,4.367,4.2,8.732,6.352,13.075,1.648,3.332,3.306,6.659,5.027,9.954.584,1.119,1.176,2.235,1.792,3.336.225.4.452.8.688,1.193.09.15.179.3.276.449a8.909,8.909,0,0,0,2.206,1.974,124.145,124.145,0,0,0,12.44,8.12c5.239,3.057,10.593,5.917,15.95,8.76,6.6,3.5,13.208,6.973,19.779,10.522q2.711,1.464,5.443,2.882a3.111,3.111,0,0,0,3.14-5.373c-6.771-3.9-13.741-7.468-20.652-11.113-5.627-2.968-11.261-5.926-16.811-9.038-4.519-2.533-8.992-5.169-13.25-8.126q-1.427-.992-2.816-2.037-.3-.228-.6-.46c-.276-.211.587.537.362.28a.594.594,0,0,0-.137-.106c.014,0,.51.769.327.448-.093-.164-.2-.322-.3-.485-.541-.909-1.046-1.839-1.546-2.771-1.6-2.976-3.116-5.994-4.625-9.015q-3.1-6.193-6.125-12.418-3.5-7.17-6.95-14.364-3.566-7.42-7.1-14.852-3.3-6.935-6.583-13.879-2.7-5.719-5.4-11.445l-1.058-2.252a3,3,0,0,0-4.089-1.073,3.072,3.072,0,0,0-1.072,4.089Z" transform="translate(-4572.073 -2330.124)" fill="#221f1f"/></g><g transform="translate(4543.72 2195.225)"><path d="M4580.936,2244.075c.656,4.041,1.582,8.05,2.512,12.036.914,3.919,1.845,7.834,2.748,11.756q.376,1.634.739,3.27c.091.41-.062-.36-.043-.342a1.568,1.568,0,0,1,.031.378c.01.2.011.394.005.59s-.023.406-.04.609-.119.436.045-.307c-.03.136-.044.276-.07.413l.7-1.2c-.2.223-.4.375-.589.623a3.94,3.94,0,0,0-.649,1.451,10.242,10.242,0,0,1-.408,1.191l.309-.73a7.645,7.645,0,0,1-.907,1.6l.478-.618a11.151,11.151,0,0,1-1.28,1.263q-.835.765-1.656,1.544c-1.082,1.025-2.149,2.065-3.22,3.1-1.043,1.009-2.089,2.015-3.155,3q-.82.758-1.657,1.5a7.17,7.17,0,0,0-1,1.017,5.209,5.209,0,0,0-.775,1.792,2.431,2.431,0,0,0,.448,2.178,2.344,2.344,0,0,0,1.962.985,6.188,6.188,0,0,0,2.262-.515,9.173,9.173,0,0,0,1.638-1.322q1-.89,1.982-1.808c1.3-1.215,2.574-2.458,3.853-3.7,1.317-1.275,2.641-2.542,4-3.773a10.345,10.345,0,0,0,2.815-4.4,8.584,8.584,0,0,0,.279-.946,3.383,3.383,0,0,0,.008-1.821,4.877,4.877,0,0,0-.324-.769q-.2-.377.1.428.125.821.156.45a5.9,5.9,0,0,0,.022-1.948,35.167,35.167,0,0,0-1.366-5.557c-.975-3.478-1.968-6.951-2.948-10.427-1.127-3.993-2.216-8.006-3.462-11.962a1.863,1.863,0,0,0-2.255-1.28,1.887,1.887,0,0,0-1.28,2.254Z" transform="translate(-4572.956 -2241.744)" fill="#221f1f"/></g><g transform="translate(4514.808 2205.421)"><path d="M4514.841,2264.326c.661,3.9,1.447,7.787,2.314,11.643.883,3.918,1.812,7.84,3.058,11.66a31.613,31.613,0,0,0,1.175,3.183,10.058,10.058,0,0,0,1.766,2.491,11.625,11.625,0,0,0,3.478,2.6,56.968,56.968,0,0,0,9.289,3.231c1.821.523,3.651,1.016,5.484,1.493.784.2,1.566.4,2.358.575a5.2,5.2,0,0,0,2.23.148c.131-.027.656-.116.1-.045s.008,0,.135-.017a2.4,2.4,0,0,0,2.226-1.7,2.43,2.43,0,0,0-1.061-2.607c-.093-.067-.186-.137-.28-.2-.221-.151.511.424.317.246-.047-.044-.1-.085-.147-.126a3.837,3.837,0,0,0-1.326-.807c-.156-.052-.316-.093-.474-.139-.638-.185-1.277-.36-1.921-.523q-2.336-.59-4.665-1.221a89.631,89.631,0,0,1-9.4-3c-.449-.178.676.3.333.141-.105-.048-.212-.093-.317-.143-.235-.11-.467-.229-.694-.356s-.478-.281-.707-.437c-.116-.079-.228-.166-.343-.244.8.541.234.183.033.01a9.19,9.19,0,0,1-.735-.711c-.132-.142-.255-.291-.381-.437s-.2-.371.18.236c-.073-.117-.165-.224-.243-.338-.223-.324-.427-.662-.641-.993q-.194-.3-.368-.611c-.053-.1-.1-.2-.156-.289-.17-.273.2.5.029.089a114.559,114.559,0,0,1-3.707-11.192c-1.191-4.175-2.263-8.421-3.8-12.487a1.629,1.629,0,0,0-3.141.866Z" transform="translate(-4514.808 -2262.251)" fill="#221f1f"/></g><path d="M4652.9,2481.6a10.971,10.971,0,1,0,3.634,13.718l-.989.641a17.5,17.5,0,0,0,1.524-4.743A9.826,9.826,0,0,0,4652.9,2481.6Z" transform="translate(-60.837 -166.204)" fill="#fff"/><g transform="translate(4573.081 2311.591)"><path d="M4647.481,2481.592a3.855,3.855,0,0,1,3.117.147,6.04,6.04,0,0,1,2.307,2.331,7.929,7.929,0,0,1,.42.766c.028.059.16.38.082.177.058.151.112.3.161.457a13.931,13.931,0,0,1,.473,2.072c-.033-.217.019.171.025.232q.022.24.033.479a9.768,9.768,0,0,1-.009,1.1c-.01.156-.026.311-.042.466.028-.269-.019.1-.034.185a9.471,9.471,0,0,1-.238.985c-.046.151-.094.3-.146.45l-.083.225c0,.008-.1.254-.037.1s-.039.088-.043.1c-.034.073-.068.147-.1.221q-.126.261-.266.515c-.164.3-.343.591-.531.876-.1.148-.2.295-.3.439-.037.052-.081.1-.113.158-.12.2.189-.222.037-.043a12.247,12.247,0,0,1-1.093,1.164q-.141.129-.289.251c-.134.113-.283.22-.043.044-.223.163-.447.324-.679.474a11.221,11.221,0,0,1-1.4.763c-.059.027-.118.051-.176.079-.184.086.126-.053.129-.055a1.568,1.568,0,0,1-.359.138q-.393.143-.793.258-.371.107-.749.19a2.526,2.526,0,0,1-.823.152s.372-.041.16-.021c-.064.006-.128.016-.192.022-.127.013-.256.025-.384.034-.278.021-.557.031-.835.033q-.385,0-.771-.021c-.129-.008-.256-.017-.384-.029-.063-.006-.128-.014-.191-.019-.26-.023.018.034.1.017a2.379,2.379,0,0,1-.754-.135q-.406-.086-.8-.2-.367-.108-.726-.243c-.067-.025-.437-.191-.193-.073s-.171-.083-.243-.117a9.8,9.8,0,0,1-1.375-.813c-.06-.042-.369-.3-.173-.124s-.167-.146-.211-.184q-.315-.276-.606-.579c-.179-.186-.346-.381-.512-.577a.778.778,0,0,1-.122-.15s.217.3.1.126c-.082-.125-.176-.243-.259-.366a10.824,10.824,0,0,1-.8-1.394c-.032-.069-.231-.425-.09-.184s-.044-.113-.074-.19q-.149-.393-.271-.794a13.108,13.108,0,0,1-.362-1.577,1.4,1.4,0,0,1-.029-.193c.009-.005.042.41.027.19-.01-.129-.028-.258-.039-.387-.023-.28-.038-.561-.042-.841a15.927,15.927,0,0,1,.085-1.615c.019-.216-.021.2-.026.2a1.411,1.411,0,0,0,.03-.191c.023-.127.044-.254.069-.38q.083-.411.2-.814c.069-.248.147-.493.234-.735.043-.121.09-.241.136-.361.057-.149.107-.088,0,0-.059.135-.065.155-.022.058.018-.039.035-.078.053-.116a11.009,11.009,0,0,1,.79-1.4c.072-.107.148-.211.224-.316.212-.3-.231.268.009-.007.187-.213.37-.427.569-.628q.275-.278.571-.532c.049-.042.1-.083.149-.125.1-.085.088-.158,0-.006s-.107.078,0,0c.07-.05.139-.1.21-.151a10.466,10.466,0,0,1,1.39-.822c.116-.057.237-.106.352-.166.19-.1-.174.081-.184.074a1,1,0,0,0,.18-.073c.264-.1.527-.2.8-.28a12.693,12.693,0,0,1,1.646-.4c.064-.011.13-.018.193-.031.218-.042-.213.028-.213.028a1.368,1.368,0,0,0,.39-.042c.281-.026.564-.041.848-.048a13.916,13.916,0,0,1,1.629.075c.382.037-.4-.07-.019,0,.128.023.257.043.385.068.277.053.55.118.823.19.251.066.5.138.747.219q.184.061.367.128l.181.069c.3.111-.111-.057-.116-.052a8.238,8.238,0,0,1,1.442.734q.339.188.662.4c.108.071.213.146.318.22a1.164,1.164,0,0,1,.156.115c-.034-.035-.314-.247-.059-.041a1.793,1.793,0,1,0,2.535-2.536c-3.752-4.164-10.415-4.576-15.2-2.066a11.925,11.925,0,0,0-5.442,6.059,13.6,13.6,0,0,0-.647,7.871,12.667,12.667,0,0,0,3.748,6.781,12.338,12.338,0,0,0,7.458,3.107,13.731,13.731,0,0,0,7.536-1.655,12.282,12.282,0,0,0,5.521-6.414,11.584,11.584,0,0,0-.594-9.379,8.826,8.826,0,0,0-2.937-3.252,6.629,6.629,0,0,0-4.062-1.244,5.858,5.858,0,0,0-2.221.655c-.939.484-.288,2.1.73,1.731Z" transform="translate(-4632.006 -2475.776)" fill="#221f1f"/></g><g transform="translate(4943.553 2243.123)"><path d="M5473.455,2339.563c-.734,1.705-1.521,3.388-2.31,5.069q-1.77,3.775-3.586,7.528-2.261,4.692-4.549,9.371-2.563,5.249-5.144,10.488-2.674,5.433-5.359,10.859-2.635,5.326-5.278,10.647-2.4,4.824-4.8,9.644-2,4.024-4,8.051-1.421,2.855-2.842,5.709c-.442.888-.91,1.767-1.329,2.667-.018.039-.039.078-.058.117l1.128-1.129q-2.424,1.3-4.85,2.592-5.944,3.171-11.9,6.327-7.555,4.005-15.125,7.979-7.168,3.758-14.37,7.457c-3.242,1.658-6.492,3.308-9.768,4.9-.231.112-.462.229-.7.331a3.112,3.112,0,0,0-1.43,1.859,3.18,3.18,0,0,0,.313,2.4,3.14,3.14,0,0,0,1.859,1.43,3.617,3.617,0,0,0,2.4-.314c.4-.177-.961.4-.483.206.3-.124.6-.254.9-.381l.47-.2q.544-.237,1.085-.482c.891-.4,1.766-.833,2.641-1.267,2.322-1.153,4.63-2.331,6.935-3.516q8.877-4.564,17.695-9.242,8.557-4.515,17.091-9.071,4.929-2.629,9.852-5.268a3.994,3.994,0,0,0,1.813-1.692l1.23-2.475q2.788-5.611,5.568-11.228,4.126-8.34,8.218-16.7,4.588-9.347,9.148-18.709,4.167-8.562,8.283-17.147c1.909-4,3.822-7.991,5.632-12.032.261-.583.519-1.166.769-1.754a3.277,3.277,0,0,0,.3-2.3,2.989,2.989,0,0,0-3.676-2.087,2.882,2.882,0,0,0-1.786,1.373Z" transform="translate(-5377.09 -2338.075)" fill="#221f1f"/></g><g transform="translate(5027.019 2198.625)"><path d="M5552.856,2249.916c-1.294,3.825-2.39,7.727-3.512,11.606q-1.613,5.578-3.235,11.154a30.482,30.482,0,0,0-.854,3.112,10.988,10.988,0,0,0-.014,3.783l.274-2.093a3.684,3.684,0,0,0-.426,2.886,11.044,11.044,0,0,0,.7,1.707,10.531,10.531,0,0,0,1.81,2.508c1.327,1.408,2.681,2.786,3.98,4.22,1.247,1.376,2.473,2.773,3.694,4.171q.857.981,1.713,1.962c.293.335.574.692.891,1a4.246,4.246,0,0,0,2.145.989,2.492,2.492,0,0,0,2.179-.448,2.345,2.345,0,0,0,.985-1.963c-.057-.466-.1-.938-.187-1.4a4.265,4.265,0,0,0-1.188-1.936q-.677-.769-1.349-1.541-1.44-1.651-2.889-3.3-1.487-1.679-3.01-3.327c-1.058-1.137-2.248-2.2-3.206-3.42l.478.618a7.829,7.829,0,0,1-.955-1.646l.308.73c-.141-.354-.25-.715-.4-1.065a2.83,2.83,0,0,0-.707-1.088c-.167-.154-1.232-.984-.3-.218l.7,1.2c-.02-.093-.035-.187-.055-.279-.093-.426.056.277.038.3.047-.059-.036-.473-.039-.557-.005-.184,0-.368.007-.552,0-.091.013-.181.019-.273.031-.452-.095.56-.037.234.167-.932.416-1.851.636-2.772q.667-2.8,1.337-5.59c.875-3.653,1.751-7.3,2.577-10.969.508-2.254,1.022-4.5,1.428-6.777a1.833,1.833,0,0,0-3.535-.975Z" transform="translate(-5544.954 -2248.583)" fill="#221f1f"/></g><g transform="translate(5039.207 2206.008)"><path d="M5599.111,2264.615c-1.082,3.128-1.967,6.354-2.792,9.558-.862,3.346-1.719,6.693-2.634,10.025-.381,1.388-.771,2.774-1.183,4.153-.2.682-.423,1.35-.686,2.011-.154.387.127-.307.127-.3a.968.968,0,0,1-.1.217c-.142.324-.277.65-.4.979-.227.589.238-.507.057-.127-.079.165-.156.33-.243.491a5.517,5.517,0,0,0-.459.719s.48-.575.229-.3c-.049.052-.093.108-.142.16-.11.12-.228.234-.35.343-.055.049-.113.1-.169.145-.23.208.547-.39.283-.219-.134.087-.262.18-.4.263s-.292.17-.441.247c-.078.04-.158.079-.238.117-.478.225.2-.048.21-.082-.025.137-1.173.418-1.309.465l-1.68.573-3.048,1.038q-3.354,1.139-6.711,2.266-1.619.543-3.24,1.082c-.5.167-.987.351-1.476.539a4.732,4.732,0,0,0-1.626.939c-.188.173-.374.339-.572.5a2.292,2.292,0,0,0-.478,2.521,2.343,2.343,0,0,0,2.11,1.42,5.942,5.942,0,0,0,1.94-.072c.474-.125.948-.272,1.414-.424.965-.314,1.923-.65,2.884-.978q3.066-1.043,6.126-2.1,3.144-1.082,6.284-2.174a9.828,9.828,0,0,0,4.6-2.829,10.428,10.428,0,0,0,2.1-4.632c.284-1.393.66-2.771.969-4.158.746-3.358,1.434-6.728,2.121-10.1.771-3.783,1.509-7.593,2.066-11.414a1.629,1.629,0,1,0-3.141-.866Z" transform="translate(-5569.467 -2263.43)" fill="#221f1f"/></g><path d="M5488.121,2485.471c3.691-.188,7.132,2.876,7.776,6.516a9.826,9.826,0,0,1-4.346,9.536,10.971,10.971,0,1,1,3.887-13.648" transform="translate(-482.572 -167.092)" fill="#fff"/><g transform="translate(4989.929 2313.148)"><path d="M5476.584,2484.766a9.656,9.656,0,0,1,2.576-2.109,5.67,5.67,0,0,1,1.3-.514q.376-.105.762-.178c.128-.024.257-.047.387-.065-.371.051.757-.084.284-.034a10.767,10.767,0,0,1,1.562-.059c.264.01.526.035.79.06.434.042-.3-.062.128.019.173.033.348.061.521.1a13.456,13.456,0,0,1,1.553.423c.129.044.257.09.384.138.045.017.464.189.126.044q.441.189.864.413a12.775,12.775,0,0,1,1.419.87c.06.042.432.33.087.054.1.077.191.154.283.234a7.986,7.986,0,0,1,.612.591c.088.094.559.685.276.3.143.194.284.389.415.591a5.535,5.535,0,0,1,.742,1.385c-.125-.445-.03-.062.006.036.043.114.083.229.122.346.078.232.147.469.209.706s.115.481.161.724c.015.082.029.163.042.245s.026.164.038.246c-.035-.264-.04-.3-.017-.1a14.984,14.984,0,0,1,.069,1.5q-.007.378-.036.756-.015.189-.035.377c-.009.084-.019.167-.03.251.037-.269.04-.3.01-.1-.093.5-.19.991-.332,1.478q-.1.364-.233.72c-.043.119-.089.235-.134.353-.076.185-.062.156.039-.087q-.051.115-.1.229a10.838,10.838,0,0,1-.72,1.313,2.231,2.231,0,0,1-.425.612l.137-.177q-.077.1-.156.192-.158.19-.326.373-.264.284-.549.546-.145.133-.3.26c-.076.064-.389.373-.031.036a6.488,6.488,0,0,1-1.43.905,3.415,3.415,0,0,1-.706.337c.473-.114.084-.039-.033.006s-.245.09-.369.132a11.522,11.522,0,0,1-1.648.423,1.233,1.233,0,0,1-.389.063l.246-.033c-.087.011-.174.021-.261.029q-.392.041-.787.054a12.181,12.181,0,0,1-1.709-.059l-.13-.014q-.322-.04.121.017a1.5,1.5,0,0,1-.389-.064c-.258-.047-.515-.1-.769-.168q-.318-.08-.63-.178c-.2-.062-.727-.15-.861-.309l.224.095q-.119-.051-.237-.106c-.118-.055-.235-.112-.352-.17q-.349-.177-.684-.38t-.652-.43l-.105-.077q-.253-.19.087.069c-.108-.015-.316-.264-.4-.337q-.294-.263-.565-.549c-.09-.094-.524-.465-.518-.592l.15.2c-.053-.069-.1-.139-.154-.209-.076-.1-.149-.212-.221-.32q-.249-.378-.463-.778c-.061-.115-.12-.229-.176-.345-.038-.078-.075-.156-.111-.234-.087-.2-.072-.156.047.123.019-.015-.286-.773-.311-.851q-.138-.432-.241-.876a3.371,3.371,0,0,0-.17-.895l.036.28c-.01-.087-.021-.173-.031-.259-.019-.172-.036-.346-.048-.519q-.032-.456-.03-.914t.04-.914c.01-.13.025-.26.037-.39q.041-.333-.022.147c.013-.086.026-.172.041-.258a11.783,11.783,0,0,1,.438-1.77c.027-.081.343-.831.319-.851.039.033-.192.43,0,0,.073-.157.148-.312.229-.466a14.381,14.381,0,0,1,.962-1.53c.073-.105.147-.21.22-.315q.183-.246-.064.076.081-.1.165-.2c.2-.234.4-.458.618-.673a1.8,1.8,0,0,0,.14-2.354,1.776,1.776,0,0,0-2.314-.462,10.6,10.6,0,0,0-2.937,3.06,12.468,12.468,0,0,0-1.493,3.582,13.659,13.659,0,0,0,.34,7.871,12.084,12.084,0,0,0,5.068,6.278,13.56,13.56,0,0,0,15.144-.962,12.116,12.116,0,0,0,4.023-6.34c1.325-4.882-.01-10.618-4.445-13.445a12.988,12.988,0,0,0-7.586-2.09,10.626,10.626,0,0,0-6.958,3.093,11.7,11.7,0,0,0-1.269,1.6c-.592.887.775,1.958,1.487,1.147Z" transform="translate(-5470.36 -2478.908)" fill="#221f1f"/></g><path d="M5351.059,2549.377c3.981-.2,7.693,3.1,8.388,7.029a10.6,10.6,0,0,1-4.688,10.286c-5.328,3.568-13.493,1.719-16.763-3.8s-.978-13.567,4.708-16.531,13.6-.234,16.249,5.605" transform="translate(-413.125 -199.068)" fill="#fff"/><g transform="translate(4921.084 2344.667)"><path d="M5338.614,2548.617a9.933,9.933,0,0,1,2.783-2.277,3.828,3.828,0,0,1,.6-.292c.286-.105.575-.2.869-.279q.41-.111.829-.187c.129-.023.259-.045.389-.063-.436.06.719-.076.257-.029a11.84,11.84,0,0,1,1.763-.06c.287.014.572.045.858.071-.289-.026-.041,0,.1.018q.262.044.522.1a14.552,14.552,0,0,1,1.751.483q.193.067.384.141c.09.034.521.23.16.061.291.136.582.267.866.417a13.8,13.8,0,0,1,1.541.947,1.4,1.4,0,0,1,.228.165s-.272-.225-.12-.094c.092.08.189.154.281.234q.32.278.611.587c.07.074.528.489.512.593,0,0-.27-.373-.072-.088l.1.147c.08.115.161.229.237.345a13.269,13.269,0,0,1,.773,1.429c.089.182-.078-.166-.071-.17s.078.2.089.226q.065.17.124.343.139.4.247.82c.067.258.125.519.175.78.026.143.049.285.073.427.055.324-.039-.4,0,.047a14.363,14.363,0,0,1,.071,1.684c-.006.272-.021.544-.044.815-.01.126-.023.25-.037.376-.048.476.063-.35-.016.109a14.665,14.665,0,0,1-.374,1.655q-.116.391-.256.774c-.042.118-.093.233-.134.352-.068.2.076-.178.079-.18a1.217,1.217,0,0,0-.127.285,11.663,11.663,0,0,1-.806,1.47c-.067.1-.136.207-.208.309-.052.075-.361.415-.136.2s-.06.073-.114.136c-.1.126-.213.25-.324.371q-.283.309-.591.594-.145.134-.3.263l-.151.127-.1.083c-.117.093-.067.056.149-.113-.028.129-.53.376-.645.45q-.384.248-.789.464c-.25.134-.51.246-.765.373s.378-.142.124-.052c-.062.022-.122.049-.183.072q-.214.082-.432.156a12.355,12.355,0,0,1-1.716.449c-.151.028-.3.046-.456.077-.222.045.221-.028.22-.028a.77.77,0,0,0-.2.023c-.308.029-.613.056-.922.067a13.1,13.1,0,0,1-1.783-.054c-.064-.006-.131-.017-.2-.021-.281-.018.437.071.159.023-.13-.022-.26-.04-.391-.062q-.454-.08-.9-.193c-.276-.07-.551-.148-.821-.237a4.129,4.129,0,0,0-.862-.318s.4.186.2.083c-.057-.031-.12-.053-.179-.081-.138-.065-.276-.132-.411-.2-.271-.14-.538-.291-.8-.452-.241-.15-.472-.313-.7-.477-.314-.222.308.261.015.01-.133-.114-.269-.225-.4-.342q-.318-.288-.612-.6c-.089-.1-.177-.194-.262-.292-.042-.049-.085-.1-.127-.149-.028-.033-.3-.376-.076-.088.209.27-.056-.082-.1-.148-.087-.124-.171-.249-.252-.376q-.245-.381-.456-.781c-.131-.248-.243-.5-.363-.756-.1-.208.093.227.092.218a.838.838,0,0,0-.071-.18c-.059-.162-.12-.323-.174-.486a12.173,12.173,0,0,1-.433-1.693,2.4,2.4,0,0,0-.064-.385c-.006-.018.058.5.035.258-.007-.065-.017-.129-.024-.194-.034-.3-.06-.6-.073-.908a13.129,13.129,0,0,1,.038-1.758,3.936,3.936,0,0,0,.048-.454c0-.017-.079.493-.033.255.012-.064.02-.129.03-.193.049-.3.11-.6.179-.894a12.752,12.752,0,0,1,.523-1.672c.023-.06.048-.12.072-.18.131-.338-.05.128-.069.159a3.069,3.069,0,0,0,.159-.354q.193-.409.417-.8c.286-.5.623-.976.954-1.452.037-.052.075-.1.111-.156.157-.231.029.089-.088.107.057-.009.205-.254.247-.3.2-.232.4-.454.619-.67a1.94,1.94,0,0,0,.151-2.54,1.916,1.916,0,0,0-2.5-.5,11.431,11.431,0,0,0-3.164,3.294,13.462,13.462,0,0,0-1.625,3.913,14.757,14.757,0,0,0,.357,8.393,13.046,13.046,0,0,0,5.433,6.795,14.621,14.621,0,0,0,16.474-1.072,13.088,13.088,0,0,0,4.256-6.772c1.426-5.254,0-11.444-4.777-14.492a14.05,14.05,0,0,0-8.113-2.271,11.464,11.464,0,0,0-7.588,3.335,12.508,12.508,0,0,0-1.374,1.732c-.638.957.837,2.113,1.6,1.238Z" transform="translate(-5331.901 -2542.298)" fill="#221f1f"/></g><path d="M4783.4,2549.377c3.982-.2,7.693,3.1,8.389,7.029a10.6,10.6,0,0,1-4.687,10.286c-5.329,3.568-13.493,1.719-16.764-3.8s-.978-13.567,4.708-16.531,13.6-.234,16.248,5.605" transform="translate(-127.72 -199.068)" fill="#fff"/><g transform="translate(4638.271 2344.397)"><path d="M4770.391,2548.344a10.557,10.557,0,0,1,1.753-1.635,10.169,10.169,0,0,1,.961-.625c.173-.1.351-.192.53-.281a4.664,4.664,0,0,1,.429-.193,9.083,9.083,0,0,1,1-.29q.287-.067.577-.117c.086-.015.173-.029.259-.042l-.045.007.192-.021a14.424,14.424,0,0,1,2.29-.018c.088.007.176.015.264.024,0,0,.432.057.19.021-.2-.03.074.013.122.021.109.019.218.038.327.059q.592.115,1.171.288c.369.109.733.235,1.091.378.084.034.168.07.253.1.231.092-.245-.115-.02-.009.208.1.417.189.621.292a9.17,9.17,0,0,1,2.056,1.274c-.359-.329.1.091.167.154.136.12.268.246.4.374s.224.232.331.352c.053.06.106.121.157.182s.077.092.115.14c.082.1.051.062-.095-.125a2.838,2.838,0,0,1,.566.847c.2.329.363.67.526,1.016.117.247,0-.089-.043-.1a1.382,1.382,0,0,1,.089.225q.086.227.163.458c.119.368.228.741.316,1.118q.063.27.114.543c.014.072.027.45.081.489-.075-.055-.045-.4-.02-.129.008.083.018.165.026.247.019.207.033.415.043.622.017.375.018.752,0,1.127q-.01.252-.03.5c-.008.1-.118.559-.063.626-.059-.072.063-.407.016-.131-.015.083-.026.166-.041.248q-.049.279-.109.556-.127.583-.307,1.154c-.1.32-.218.632-.338.944-.153.4.148-.305.023-.058-.037.074-.069.152-.1.227-.088.188-.181.373-.28.556q-.249.465-.54.906c-.091.138-.188.271-.282.407-.2.287.054-.095.082-.1-.056.007-.186.231-.233.287a11.306,11.306,0,0,1-.84.891q-.23.22-.47.428c-.079.068-.159.136-.239.2-.061.05-.477.34-.088.073a9.459,9.459,0,0,1-2.307,1.339c.052-.017.414-.159.076-.037-.09.032-.179.067-.27.1q-.27.1-.543.178a11.227,11.227,0,0,1-1.314.306c-.516.088.354-.03-.166.025q-.318.034-.637.049a11.489,11.489,0,0,1-1.284-.008c-.216-.013-.431-.038-.646-.057-.287-.025.394.065.109.015-.1-.016-.191-.03-.287-.046a13.278,13.278,0,0,1-1.363-.313c-.411-.117-.815-.254-1.214-.408-.065-.025-.377-.14-.109-.04s-.043-.019-.108-.048q-.355-.159-.7-.335a16.6,16.6,0,0,1-2.08-1.26c-.415-.294.357.3.043.036-.1-.082-.2-.163-.3-.247q-.289-.249-.559-.52-.252-.252-.486-.522c-.082-.095-.16-.192-.24-.288-.306-.367.3.423.023.028a11.56,11.56,0,0,1-.767-1.217q-.166-.306-.31-.623c-.022-.049-.043-.1-.066-.149-.129-.271.123.3.116.278-.044-.128-.1-.252-.148-.38a10.9,10.9,0,0,1-.413-1.405c-.05-.225-.093-.452-.129-.68-.085-.533.044.432.014.121-.013-.135-.029-.27-.04-.405a11.051,11.051,0,0,1-.022-1.427c.012-.232.033-.463.055-.693.045-.477-.081.491-.024.163.023-.135.043-.271.067-.4a11.027,11.027,0,0,1,.37-1.437c.074-.224.161-.442.243-.664s-.222.507-.12.284c.028-.063.056-.127.084-.191.053-.114.106-.228.162-.341a10.811,10.811,0,0,1,.774-1.315c.065-.094.133-.187.2-.281.252-.354-.368.447-.049.063.168-.2.337-.4.517-.6a13.144,13.144,0,0,1,1.179-1.109c.372-.314-.343.245-.077.056.1-.072.2-.148.3-.22q.371-.259.761-.491.359-.212.73-.4.179-.091.359-.176l.231-.105c.322-.15-.1.044-.19.077.6-.22,1.2-.449,1.821-.615a18.654,18.654,0,0,1,2.03-.425c.08-.012.161-.02.239-.035-.025.005-.566.067-.206.031.165-.017.33-.037.5-.052.406-.038.813-.054,1.219-.087.8-.064,1.6-.1,2.405-.092a1.934,1.934,0,0,0,1.9-1.677,1.909,1.909,0,0,0-1.386-2.123,19.306,19.306,0,0,0-5.416-.164,17.955,17.955,0,0,0-4.966,1.348,13.494,13.494,0,0,0-5.967,5.06,13.246,13.246,0,0,0-.149,13.794,14.309,14.309,0,0,0,6.953,5.6,13.968,13.968,0,0,0,11.869-.349,13.738,13.738,0,0,0,6.85-8.725,14.242,14.242,0,0,0-1.106-10.309,12.546,12.546,0,0,0-8.668-5.95,12.348,12.348,0,0,0-5.515.11,12,12,0,0,0-4.743,2.5,11.339,11.339,0,0,0-1.832,2.152c-.647.95.846,2.119,1.6,1.238Z" transform="translate(-4763.115 -2541.756)" fill="#221f1f"/></g><g transform="translate(4672.003 2149.22)"><path d="M5054,2151.451c-6.117-.537-11.466-.772-17.814-.963q-10.712-.323-21.427-.519-24.187-.446-48.378-.609-24.273-.159-48.547-.13-19.583.042-39.167.341c-4.416.072-8.832.155-13.247.3-6.843.218-14.094.447-20.7,2.407a19.321,19.321,0,0,0-7.351,3.813,14.393,14.393,0,0,0-4.014,6.439c-1.253,3.848-1.286,8-1.385,12.008-.229,9.261-.3,18.527-.389,27.79q-.19,19.794-.3,39.588-.117,19.031-.227,38.062-.058,11.388-.1,22.774c-.01,3.99-.144,8.468,2.094,11.961,3.92,6.118,12.705,6.419,19.174,6.448,6.094.028,12.188.011,18.281.021q15.907.024,31.811.054,19.759.04,39.517.076,20.738.037,41.476.067,18.6.025,37.193.035,13.542,0,27.083-.02c7.993-.022,19.043,1.377,23.566-6.767,1.677-3.018,2.138-6.554,2.324-9.948.279-5.092.085-10.232.078-15.33q-.026-17.05-.118-34.1c-.119-21.361-.315-42.722-.74-64.08-.168-8.44-.368-16.88-.654-25.317-.1-3.108-4.949-3.123-4.843,0,.638,18.836.905,37.684,1.1,56.529q.349,33.265.341,66.533c0,5.147.184,10.332-.073,15.474-.042.838-.1,1.675-.2,2.509a19.067,19.067,0,0,1-.936,4.081c.006-.016-.256.651-.114.314s-.143.3-.138.29c-.155.31-.315.617-.5.914-.07.113-.659.932-.313.5-.189.237-.391.463-.6.679s-.441.421-.673.619c-.5.425.259-.172-.078.054-.176.117-.35.237-.53.348a7.188,7.188,0,0,1-1.554.755,17.178,17.178,0,0,1-2.489.647,35.342,35.342,0,0,1-5.7.328c-6.83.05-13.661.045-20.491.048q-16.455.007-32.909-.017-19.951-.023-39.9-.061-20.307-.037-40.614-.08-17.967-.037-35.935-.08-12.668-.031-25.335-.057-3.434-.006-6.868-.01c-3.986-.008-7.807-.086-11.55-1.359-.279-.094-.556-.2-.828-.307.522.214-.376-.187-.519-.262-.281-.147-.556-.305-.822-.477-.1-.066-.2-.136-.3-.2-.5-.329.389.347-.056-.036-.386-.332-.717-.7-1.067-1.062-.374-.392.233.349.045.057-.072-.113-.153-.22-.226-.334-.145-.226-.277-.46-.4-.7-.074-.145-.138-.293-.208-.439.03.061.189.55.066.144-.073-.238-.169-.469-.242-.708a15.7,15.7,0,0,1-.4-1.779c-.116-.633-.005.149-.036-.243-.024-.315-.065-.631-.089-.947-.052-.668-.078-1.339-.093-2.008-.025-1.126-.015-2.254-.013-3.38q.007-4.625.026-9.25.055-16.15.137-32.3.1-20.062.26-40.123.141-17.385.362-34.77c.055-3.752.111-7.5.207-11.257.029-1.146.06-2.292.11-3.436.028-.632.064-1.264.116-1.895.032-.4.074-.792.114-1.187.016-.153.035-.306.054-.458-.07.557.026-.17.036-.227a21.86,21.86,0,0,1,.9-3.728c.056-.158.431-1.048.15-.424.121-.267.244-.533.381-.793a12.949,12.949,0,0,1,.9-1.446c.212-.3-.286.3.129-.151.188-.205.37-.414.568-.611.179-.179.369-.345.556-.514.1-.1.217-.182.327-.272-.515.423-.058.045.047-.025.448-.3.9-.589,1.371-.844.276-.149.558-.286.843-.418.116-.054.234-.11.354-.158-.56.226.021.01.146-.032a32.871,32.871,0,0,1,4.2-1.129,42.588,42.588,0,0,1,4.849-.669c2.085-.2,4.178-.318,6.271-.407,2.533-.108,5.07-.165,7.6-.234,10.617-.294,21.24-.379,31.86-.455q22.485-.161,44.974-.161,24.532-.011,49.064.141,22.039.125,44.077.446,4.5.068,9,.17c.335.007.685.045,1.019.026l.625-.084c-.214.041-.236.055-.065.042l.556-.012,1.966-.043q1.979-.041,3.958-.074c2.552-.043,2.475-3.693,0-3.911Z" transform="translate(-4830.955 -2149.22)" fill="#221f1f"/></g><g transform="translate(4694.775 2174.622)"><path d="M4877.889,2203.278c25.4.837,50.835.767,76.244.933,25.285.166,50.57.188,75.855.284l21.395.082c7.125.027,14.272.215,21.395.021a2.08,2.08,0,0,0,0-4.158c-6.346-.2-12.712-.066-19.061-.069l-19.06-.009q-19.062-.009-38.122-.019c-25.284-.017-50.571-.1-75.854.07-14.264.095-28.53.1-42.79.514a1.177,1.177,0,0,0,0,2.352Z" transform="translate(-4876.753 -2200.309)" fill="#221f1f"/></g><g transform="translate(4889.24 2175.006)"><path d="M5268.915,2201.857c-.783,3.635-.628,7.481-.7,11.184-.081,3.9-.156,7.8-.193,11.7-.077,8.105-.157,16.211-.159,24.317q0,12.3.031,24.6.031,11.478.095,22.956.067,9.885.168,19.768l.023,2.157a2.342,2.342,0,1,0,4.685,0q-.155-9.669-.269-19.339-.137-11.282-.265-22.566-.13-12.249-.226-24.5c-.063-8.171-.166-16.341-.252-24.511q-.062-5.915-.158-11.829c-.064-3.717-.074-7.437-.282-11.15a19.14,19.14,0,0,0-.4-2.8,1.093,1.093,0,0,0-2.091,0Z" transform="translate(-5267.857 -2201.081)" fill="#221f1f"/></g><g transform="translate(4693.508 2176.527)"><path d="M5068.12,2318.814c-24.6-.863-49.228-.813-73.846-.75s-49.231.194-73.847.153q-20.853-.034-41.706-.277l2.24,2.24q-.39-22.669-.879-45.337-.444-20.962-.88-41.924-.264-13.3-.494-26.607c-.05-2.893-4.552-2.9-4.5,0q.4,22.67.889,45.337.447,20.962.887,41.924.267,13.3.5,26.607a2.278,2.278,0,0,0,2.24,2.24c24.615.3,49.231.306,73.847.238s49.23-.181,73.846-.208c13.9-.015,27.8-.048,41.706-.188a1.726,1.726,0,0,0,0-3.45Z" transform="translate(-4874.206 -2204.14)" fill="#221f1f"/></g><path d="M4987.588,2263.816l-7.207-7.272c-3.422-3.654-9.915-2.458-13.338,1.2s-4.515,8.868-5.218,13.825c-1.393,9.828.02,31.139.231,39.91s3.765,8.8,10.605,9.082,12.686-3.876,12.8-9.082C4985.886,2291.9,4988.932,2279.831,4987.588,2263.816Z" transform="translate(-224.446 -52.847)" fill="#fff"/><g transform="translate(4735.4 2198.599)"><path d="M4980.048,2253.013a8.557,8.557,0,0,0-2.812-3.047,9.323,9.323,0,0,0-3.524-1.326,10.125,10.125,0,0,0-4.522.359,17.7,17.7,0,0,0-4.576,2.243,11.822,11.822,0,0,0-4.838,6.125,27.529,27.529,0,0,0-1.025,7.845c-.177,4.985-.228,9.975-.266,14.963q-.062,8.127,0,16.254.026,3.46.077,6.92a56.483,56.483,0,0,0,.388,7.026,14.492,14.492,0,0,0,2.26,6.336,10.746,10.746,0,0,0,5.327,4,15.7,15.7,0,0,0,7.717.537,15.454,15.454,0,0,0,7.792-4,13.071,13.071,0,0,0,4.032-6.884,30.657,30.657,0,0,0,.262-5.01q.046-2.558.1-5.117c.115-5.954.242-11.909.344-17.864q.146-8.55.117-17.1-.012-2.3-.037-4.6a2.1,2.1,0,0,0-4.2,0q.078,8.506-.039,17.011c-.076,5.513-.208,11.024-.366,16.535q-.133,4.679-.266,9.359c-.047,1.7-.065,3.4-.139,5.092,0,.116-.013.232-.022.348-.007.076-.024.158-.024.232,0,.03.092-.53.037-.3-.062.271-.1.546-.174.815s-.147.507-.237.754c-.041.114-.1.229-.134.346.008-.031.234-.514.076-.188-.036.075-.07.152-.106.228a11.211,11.211,0,0,1-.877,1.5c-.075.108-.158.211-.23.321-.132.2.157-.2.148-.188-.058.067-.11.14-.167.208q-.3.365-.625.708a16.726,16.726,0,0,1-1.37,1.257c-.187.157.187-.141.179-.136-.059.037-.113.085-.169.125q-.2.146-.4.285-.41.278-.839.527-.4.233-.818.437-.193.1-.39.184c-.064.029-.134.055-.2.087.518-.268.212-.09.072-.036a12.768,12.768,0,0,1-1.877.568c-.144.031-.287.061-.432.087-.09.016-.671.1-.282.051.369-.052-.126.009-.215.017-.2.018-.4.031-.6.038a14.205,14.205,0,0,1-1.817-.057c-.116-.01-.232-.022-.347-.035l-.171-.02c-.283-.027.547.082.268.037-.253-.041-.507-.079-.759-.13a11.5,11.5,0,0,1-1.361-.357c-.205-.068-.4-.153-.606-.223-.14-.048.556.252.188.076-.115-.055-.232-.108-.347-.166a8.959,8.959,0,0,1-1.085-.658c-.3-.211.03.061.166.132a1.573,1.573,0,0,1-.25-.208q-.246-.214-.474-.449c-.142-.146-.275-.3-.408-.455-.239-.278.042.015.119.163a3.289,3.289,0,0,0-.225-.314,9.314,9.314,0,0,1-.678-1.168c-.046-.094-.089-.188-.134-.283-.2-.423.17.439.041.1-.092-.24-.185-.48-.267-.725a15.1,15.1,0,0,1-.42-1.534q-.089-.4-.159-.8c-.023-.128-.044-.257-.064-.386-.01-.065-.018-.131-.029-.2-.05-.276.075.616.018.138-.141-1.177-.2-2.355-.224-3.54q-.068-2.924-.1-5.849c-.066-5.021-.087-10.042-.1-15.063-.014-5.052,0-10.1.072-15.156.036-2.41.052-4.828.214-7.234.041-.605.144-1.212.172-1.817,0,.03-.083.559-.025.2.01-.062.019-.125.028-.187.02-.123.04-.247.062-.37q.075-.418.171-.833a11.718,11.718,0,0,1,.452-1.495c.026-.068.063-.14.083-.21.008-.03-.21.462-.108.258.05-.1.091-.2.14-.3.111-.234.234-.462.367-.685s.256-.411.4-.607c.044-.06.1-.119.134-.181.013-.019-.312.373-.159.211.091-.1.171-.207.261-.307a12.562,12.562,0,0,1,1.187-1.116c.167-.145-.18.137-.177.136a1.182,1.182,0,0,0,.211-.155c.158-.114.318-.226.48-.335.357-.243.722-.476,1.095-.695q.482-.284.983-.536c.17-.085.344-.165.517-.247.042-.02.291-.134.041-.021s.061-.023.11-.043a10.807,10.807,0,0,1,1.874-.55c.083-.016.617-.1.257-.048-.341.05.1-.005.183-.011a3.089,3.089,0,0,1,.871-.092c.036.013-.469.008-.23.045a1.588,1.588,0,0,0,.252-.008,7.578,7.578,0,0,1,.8.031c.061.005.121.015.182.019.261.018-.414-.08-.159-.019.138.033.281.05.419.081a7.828,7.828,0,0,1,.76.211c.135.045.267.1.4.145.056.02.228.117.007,0-.242-.127.012.008.063.033.13.065.259.135.39.2-.02-.009.678.306.334.14-.223-.108-.024-.01.017.011.248.127.5.249.735.39.22.129.428.213.657.334-.248-.131-.015,0,.095.062.275.145.544.3.81.462a1.23,1.23,0,0,0,1.671-1.671Z" transform="translate(-4958.457 -2248.531)" fill="#221f1f"/></g><path d="M5161.316,2263.816l-7.207-7.272c-3.422-3.654-9.915-2.458-13.338,1.2s-4.515,8.868-5.218,13.825c-1.393,9.828.019,31.139.231,39.91s3.766,8.8,10.606,9.082,14.5-1.848,14.5-12.486C5160.891,2288.492,5162.66,2279.831,5161.316,2263.816Z" transform="translate(-311.792 -52.847)" fill="#fff"/><g transform="translate(4821.291 2198.936)"><path d="M5155.077,2253.363a7.361,7.361,0,0,0-.459-.718c-.147-.2-.3-.4-.457-.592.057.072.235.3-.028-.038a2.085,2.085,0,0,0-.314-.325,8.162,8.162,0,0,0-1.814-1.251,13.023,13.023,0,0,0-9.052-.736,15.412,15.412,0,0,0-4.245,1.759,12.573,12.573,0,0,0-4.91,5.411,26.469,26.469,0,0,0-2.024,8.368,148.5,148.5,0,0,0-.574,15.828c-.007,5.717.1,11.434.221,17.149q.078,3.54.167,7.08a22.263,22.263,0,0,0,1.11,7.767,12.173,12.173,0,0,0,4.788,5.952,16.273,16.273,0,0,0,7.141,2.194c4.5.465,9.477-.423,12.7-3.856a14.087,14.087,0,0,0,3.408-6.86c.695-3.428.451-6.965.494-10.44.075-6.014.372-12.016.617-18.024.221-5.431.3-10.863,0-16.293q-.121-2.251-.312-4.5a2.1,2.1,0,1,0-4.2,0,150.448,150.448,0,0,1,.429,16.422c-.144,5.376-.473,10.745-.686,16.118q-.2,4.98-.252,9.964c-.009.884,0,1.768-.032,2.651q-.021.547-.066,1.094c-.015.175-.031.35-.05.525-.01.1-.022.2-.034.293-.038.325-.024-.086.021-.156a3.746,3.746,0,0,0-.165.966q-.1.49-.223.974a15.965,15.965,0,0,1-.561,1.708c-.135.351.236-.511.017-.048-.057.121-.112.242-.171.363q-.185.374-.4.734-.178.3-.376.591c-.07.1-.145.2-.214.3-.15.218.329-.4.159-.2-.055.066-.107.135-.163.2a9.576,9.576,0,0,1-.981,1.014q-.13.115-.264.226c-.051.042-.1.081-.153.124-.169.148.3-.225.259-.2-.208.123-.4.287-.6.417a11.275,11.275,0,0,1-1.244.673c-.044.021-.09.038-.134.06-.237.114.513-.2.266-.113-.107.04-.213.085-.32.125q-.347.129-.7.235a13.013,13.013,0,0,1-1.415.337c-.1.019-.2.035-.3.051a1.333,1.333,0,0,1-.2.031,3.175,3.175,0,0,1,.346-.046c-.257.028-.514.059-.771.079a19.748,19.748,0,0,1-3.186-.029c-.275-.023-.55-.055-.824-.085-.386-.043.608.094.085.01-.151-.024-.3-.048-.454-.074a15.949,15.949,0,0,1-1.583-.36c-.486-.137-.952-.318-1.426-.49.77.28-.013-.012-.22-.115q-.349-.172-.684-.37-.31-.183-.605-.388c-.1-.067-.191-.145-.291-.209,0,0,.479.386.219.168-.052-.044-.106-.086-.158-.13a9.12,9.12,0,0,1-1.062-1.053c-.079-.093-.151-.192-.232-.283-.03-.034.326.446.2.251-.039-.059-.084-.114-.125-.172-.156-.221-.3-.449-.44-.682s-.254-.454-.368-.688c-.05-.1-.1-.207-.146-.31-.153-.321.087.209.093.224-.024-.074-.06-.146-.088-.219a12.844,12.844,0,0,1-.524-1.716q-.105-.453-.183-.913c-.027-.158-.046-.319-.073-.477.007.04.067.578.027.184-.01-.1-.021-.191-.03-.287-.216-2.174-.167-4.4-.224-6.58-.137-5.314-.254-10.628-.322-15.943-.066-5.141-.117-10.289.078-15.428.05-1.314.12-2.628.224-3.938.059-.742.129-1.484.217-2.224a2.187,2.187,0,0,0,.063-.506c0-.008-.066.469-.029.225.015-.093.027-.187.041-.28q.076-.51.168-1.018a20.039,20.039,0,0,1,.925-3.469c.041-.107.083-.212.125-.319.128-.332-.216.475-.02.052.116-.25.232-.5.362-.74a13.016,13.016,0,0,1,.818-1.312c.251-.361-.274.33-.048.058.079-.094.156-.19.236-.283.174-.2.354-.393.544-.579s.364-.344.555-.506c.067-.058.434-.344.123-.108s.117-.084.185-.131a12.463,12.463,0,0,1,1.719-1.022c.126-.062.252-.122.38-.18a1.188,1.188,0,0,1,.256-.113c.008,0-.4.159-.179.078.332-.119.658-.248.995-.354a14.177,14.177,0,0,1,1.981-.468c.532-.085-.312.026.07-.012.163-.016.324-.034.486-.047.345-.027.689-.029,1.036-.042a16.9,16.9,0,0,1,1.96.05c.221.017-.187-.028-.186-.028.084.02.177.026.264.041q.229.038.456.086.479.1.946.248c.07.022.526.145.269.081-.356-.089.346.142.334.138.078.027.165.044.243.069.119.038.235.085.353.129.283.107-.007,0-.054-.023.058.027.117.051.173.08a6.572,6.572,0,0,0,.663.308c.069.026.255.1-.026-.022.058.026.115.051.171.08.277.141.547.285.81.452a1.231,1.231,0,0,0,1.671-1.671Z" transform="translate(-5131.199 -2249.208)" fill="#221f1f"/></g><g transform="translate(4912.5 2184.315)"><path d="M5315.455,2223.208q.441.223.873.464l-.737-.737a2.613,2.613,0,0,0,1.791,1.1q.442.091.882.2.843.2,1.671.457.913.28,1.807.622c.282.107.562.222.842.336.244.1-.568-.246-.238-.1l.241.1c.163.072.325.144.486.219a30.572,30.572,0,0,1,3.689,2.021q.949.607,1.853,1.281c.152.113.713.562.074.051.135.108.272.214.407.323q.5.4.975.814a36.3,36.3,0,0,1,3.577,3.572q.431.5.845,1.007c.127.158.253.317.379.476.289.365-.346-.457-.065-.084l.224.3q.878,1.176,1.669,2.416a45.559,45.559,0,0,1,2.954,5.425c.219.474.422.955.634,1.432-.283-.639-.062-.144-.007-.012s.117.284.173.426q.174.432.34.867.631,1.658,1.161,3.353a48.031,48.031,0,0,1,1.582,6.483q.07.421.132.843c.03.2.117,1.039.032.2.06.582.143,1.161.2,1.743q.163,1.644.245,3.294a89.632,89.632,0,0,1-.445,13.921q-.089.828-.19,1.656-.046.372-.094.743c-.07.55.089-.634.012-.088-.021.146-.04.293-.061.439q-.233,1.641-.524,3.273c-.348,1.939-.759,3.867-1.267,5.771-.217.814-.452,1.624-.712,2.425q-.193.593-.412,1.177-.1.275-.215.548c-.044.111-.092.221-.136.333.333-.847.106-.251.024-.064a40.722,40.722,0,0,1-2.732,5.125q-.87,1.4-1.831,2.738-.47.658-.96,1.3c-.059.079-.123.156-.18.236.47-.65.159-.205.052-.068q-.277.352-.559.7a52.807,52.807,0,0,1-4.6,4.987q-1.246,1.187-2.577,2.28-.286.235-.577.464c-.138.11-.579.435.08-.058-.079.059-.156.119-.234.177q-.7.527-1.416,1.021c-.876.6-1.779,1.165-2.711,1.678q-.634.349-1.284.666-.366.178-.738.344l-.246.109c-.431.191.686-.279.03-.016-.449.18-.905.332-1.359.495a12.527,12.527,0,0,0-1.738.888,2.447,2.447,0,0,0-1.112,2.735,2.482,2.482,0,0,0,2.335,1.778,7.527,7.527,0,0,0,2.081-.21c.5-.155,1-.361,1.48-.562a31.507,31.507,0,0,0,3.339-1.595,39.89,39.89,0,0,0,5.923-4.162,53.939,53.939,0,0,0,9.706-10.751,40.973,40.973,0,0,0,5.672-11.221,74.739,74.739,0,0,0,2.5-12.593,93.731,93.731,0,0,0,.733-14.316,56.663,56.663,0,0,0-1.89-13.879c-2.391-8.417-6.515-16.7-13.1-22.62a32.521,32.521,0,0,0-15.859-7.96,5.815,5.815,0,0,0-.921-.137l-.56.075q-.946.4-.123.049a.592.592,0,0,0-.129.023,7.23,7.23,0,0,0-.764.152,1.716,1.716,0,0,0-.406,3.106Z" transform="translate(-5314.636 -2219.803)" fill="#221f1f"/></g><g transform="translate(4640.783 2184.387)"><path d="M4802.353,2219.951a6,6,0,0,0-1.893.154c-.543.177-1.078.357-1.61.563-1.1.427-2.189.885-3.253,1.4a50.125,50.125,0,0,0-5.374,3.02,51.317,51.317,0,0,0-9.417,7.768,45.822,45.822,0,0,0-11.214,20.716c-2,8.366-1.692,17.17-.306,25.609a55.2,55.2,0,0,0,8.4,22.089,50.8,50.8,0,0,0,18.8,16.459c.487.251.977.5,1.474.734a5.324,5.324,0,0,0,1.772.473q.415.054.83.1a2.341,2.341,0,0,0,1.646-3.975,7.4,7.4,0,0,0-1.658-1.331q-.74-.359-1.47-.738-1.424-.739-2.8-1.56-1.337-.8-2.626-1.673-.631-.428-1.249-.876-.278-.2-.554-.408c-.181-.135-.947-.752-.213-.157a54.887,54.887,0,0,1-4.392-3.882q-1.009-1.013-1.952-2.089-.468-.534-.917-1.081-.2-.248-.4-.5c-.137-.172-.707-.938-.13-.16a51.409,51.409,0,0,1-5.7-9.607c-.087-.194-.172-.389-.257-.584-.076-.176-.264-.644.068.166-.048-.118-.1-.236-.147-.354q-.268-.653-.52-1.312-.5-1.327-.94-2.679-.884-2.742-1.5-5.562-.315-1.432-.566-2.877-.122-.695-.229-1.394c-.038-.245-.075-.49-.11-.735l-.038-.268c-.1-.7.061.476,0,.013q-.384-3.014-.557-6.046c-.116-2.082-.166-4.168-.081-6.253q.062-1.528.216-3.052c.046-.453.1-.906.156-1.358.063-.514-.091.637-.016.125q.029-.2.058-.4.06-.4.126-.8a45.794,45.794,0,0,1,1.312-5.656q.409-1.359.907-2.689.226-.6.469-1.19c.064-.157.267-.6-.049.112.043-.1.083-.2.126-.293q.165-.38.337-.756a42.268,42.268,0,0,1,2.641-4.893q.738-1.174,1.552-2.3c.247-.341.5-.675.755-1.012-.494.664.012-.01.13-.159q.258-.322.521-.638a44.988,44.988,0,0,1,3.81-4.04q1.04-.976,2.138-1.889.529-.439,1.069-.864c.124-.1.518-.376-.066.049.071-.052.14-.107.209-.16q.343-.26.688-.514a74.753,74.753,0,0,1,10.3-6.131c.466-.238.924-.486,1.389-.725a6.773,6.773,0,0,0,1.434-1.194,1.623,1.623,0,0,0-1.135-2.742Z" transform="translate(-4768.166 -2219.947)" fill="#221f1f"/></g><g transform="translate(4614.264 2223.804)"><path d="M4715.724,2303.961c.191.027.378.054.567.1l-.8-.618c.453.887,1.463.927,2.335.962.639.026,1.28.026,1.92.038q1.852.034,3.7.064c2.254.037,4.509.078,6.764.078q3.215,0,6.43.019a51.3,51.3,0,0,0,5.353-.034,4.34,4.34,0,0,0,2.885-1.071,2.383,2.383,0,0,0,.55-2.291,3.269,3.269,0,0,0-1.36-1.721,1.875,1.875,0,0,0-2.564,2.564c.088.124.166.257.258.379.117.157.036.307-.083-.222.008.036-.037-.577-.046-.339a1.684,1.684,0,0,1,.2-.785c.065-.115.357-.5.542-.544a.613.613,0,0,0-.112.068c-.265.151.491-.151.188-.078-.134.032-.264.075-.4.1a2.216,2.216,0,0,0-.253.045c.025-.008.522-.056.191-.027-.369.032-.736.061-1.107.074-1.725.06-3.457.021-5.183.034q-6.041.042-12.076.212-1.847.051-3.7.1c-.67.017-1.342.025-2.012.049-.9.031-1.965.049-2.432.967l.8-.618c-.189.042-.376.069-.567.1a1.253,1.253,0,0,0,0,2.4Z" transform="translate(-4714.832 -2299.222)" fill="#221f1f"/></g><g transform="translate(4594.521 2213.448)"><path d="M4692.117,2287.017a6.015,6.015,0,0,1,2.023,1.98,4.235,4.235,0,0,1,.535,1.151,7.8,7.8,0,0,1,.2.771c.018.087.033.175.049.263.025.163.028.176.008.039.011.087.019.175.026.262a9.994,9.994,0,0,1,.026,1.461c-.01.133-.021.267-.038.4.044-.34-.023.093-.031.134a7.009,7.009,0,0,1-.2.771c-.041.126-.087.251-.133.377-.154.427.142-.238-.07.159-.134.252-.255.51-.4.756-.122.206-.258.4-.392.6-.258.379.205-.218-.1.126-.126.143-.248.288-.378.427q-.247.26-.513.5c-.107.1-.218.188-.328.28-.356.3.267-.17-.121.09a11.667,11.667,0,0,1-1.49.879c-.052.025-.5.21-.118.06-.135.053-.27.105-.405.154q-.341.12-.69.215c-.279.077-.561.145-.844.2-.142.027-.285.051-.428.072.452-.066-.079,0-.173.006a10.662,10.662,0,0,1-1.6-.027c-.451-.035.274.055,0,0-.113-.022-.228-.038-.341-.06-.316-.062-.63-.14-.939-.232q-.333-.1-.657-.222c-.076-.029-.5-.217-.081-.027-.127-.057-.254-.113-.378-.174a11.063,11.063,0,0,1-1.444-.842c-.115-.08-.227-.163-.341-.245.373.267-.005-.005-.068-.058q-.27-.222-.525-.46-.306-.286-.592-.594-.142-.154-.279-.313c-.032-.037-.376-.459-.207-.245.183.231-.1-.132-.105-.146-.081-.113-.16-.228-.236-.344q-.23-.348-.433-.713-.168-.3-.315-.618c-.047-.1-.281-.462-.032-.058a2.678,2.678,0,0,1-.193-.519,12.1,12.1,0,0,1-.375-1.475c-.1-.468.03.431-.008-.045-.011-.139-.026-.277-.035-.417q-.025-.419-.01-.839.007-.209.024-.417c.01-.119-.009-.566-.006-.041a3.36,3.36,0,0,1,.124-.681c.06-.271.131-.538.213-.8q.062-.2.132-.394c.043-.12.178-.692.061-.181a5.149,5.149,0,0,1,.712-1.351q.184-.3.386-.581c.061-.085.292-.483.029-.051a3.394,3.394,0,0,1,.357-.43,11.442,11.442,0,0,1,1.086-1.087c.105-.092.214-.179.321-.27.365-.31-.352.241.042-.032.229-.159.456-.32.693-.468s.478-.285.725-.413a2.386,2.386,0,0,1,.627-.3l-.222.094c.085-.035.171-.068.258-.1.13-.048.261-.094.392-.137a9.568,9.568,0,0,1,.934-.256,1.881,1.881,0,0,1,.682-.125l-.26.036c.092-.01.184-.019.276-.027.139-.011.278-.019.417-.024q.35-.013.7,0c.14.006.28.015.419.029.093.008.185.018.277.029q-.464-.065-.127-.013a11.325,11.325,0,0,1,1.736.469l.129.049c.208.083.172.068-.1-.048a1.484,1.484,0,0,1,.438.205q.4.2.79.435c.278.169.544.354.813.538.3.205-.043-.048-.083-.07a2.809,2.809,0,0,1,.431.355,11.4,11.4,0,0,1,1.272,1.3c.1.115.407.352.027.022a2.4,2.4,0,0,1,.326.454c.157.23.306.467.445.708.162.281.31.571.449.864a1.885,1.885,0,0,1,.172.378c-.09-.469-.057-.128,0,.029a11.912,11.912,0,0,1,.471,1.734c.028.134.062.267.088.4.018.09.034.18.049.27q.048.321-.011-.1a3.029,3.029,0,0,1,.062.976,1.831,1.831,0,0,0,1.584,1.795,1.8,1.8,0,0,0,2-1.309,10.238,10.238,0,0,0-.168-4.319,11.856,11.856,0,0,0-1.722-3.673,13.111,13.111,0,0,0-6.638-5.027c-5.406-1.761-11.286,1.113-14.046,5.9a11.633,11.633,0,0,0-1.377,8.1,12.191,12.191,0,0,0,4.064,6.717,12.523,12.523,0,0,0,7.541,3.079,11.1,11.1,0,0,0,7.688-2.812,9.169,9.169,0,0,0,3.229-7.16,8.907,8.907,0,0,0-3.406-6.62,7.441,7.441,0,0,0-1.6-.871.954.954,0,0,0-1.138.559.966.966,0,0,0,.4,1.2Z" transform="translate(-4675.125 -2278.394)" fill="#221f1f"/></g><g transform="translate(4942.684 2228.885)"><path d="M5403.533,2309.757c-.076,0-.152-.012-.227-.023l.8.618c-.519-.985-1.685-.923-2.638-.9q-1,.022-2.01.036-1.715.025-3.432.025c-1.887,0-3.772-.042-5.659-.033-2.077.01-4.154.038-6.231.1q-2.073.059-4.147.149a5.013,5.013,0,0,0-3.5,1.339,3,3,0,0,0-.861,3.512,2.092,2.092,0,0,0,2.4.941,3.2,3.2,0,0,0,1.737-1.486,1.875,1.875,0,0,0-.482-2.417,1.9,1.9,0,0,0-2.46.146,2.088,2.088,0,0,0-.381.32c.219-.306.378-.262.175-.154.431-.232.5-.192.342-.149a1.813,1.813,0,0,1,2.243,2.119c.1-.435-.265.445-.05.1.036-.058.08-.121.11-.182.112-.219-.148.2-.167.21a1.653,1.653,0,0,0,.3-.307c.225-.251-.418.226-.1.082.056-.026.111-.071.165-.1.26-.145.216.025-.1.028a1.715,1.715,0,0,0,.309-.091c.376-.12-.477,0-.064.005.128,0,.265-.015.392-.022l.946-.051q.962-.051,1.923-.1,1.585-.073,3.171-.126c3.376-.112,6.752-.146,10.127-.3q1.652-.075,3.3-.172,1.006-.059,2.01-.126c.907-.06,2.218-.055,2.638-1.039l-.8.618c.186-.052.369-.088.559-.125a1.235,1.235,0,0,0,.891-1.366,1.263,1.263,0,0,0-1.223-1.079Z" transform="translate(-5375.342 -2309.441)" fill="#221f1f"/></g><g transform="translate(4968.785 2216.069)"><path d="M5449.59,2299.587c1.916-1.484,1.967-4.2,1.652-6.385a11,11,0,0,0-11.618-9.522,12.1,12.1,0,0,0-7.64,3.133c-4.081,3.693-5.5,9.968-2.677,14.823a12.8,12.8,0,0,0,13.942,5.957c5.229-1.413,10.547-6.231,9.339-12.151a10.677,10.677,0,0,0-.722-2.1,1.812,1.812,0,0,0-2.281-.748,1.834,1.834,0,0,0-1.058,2.156,3.036,3.036,0,0,1,.171.843c.039-.479-.017-.109-.005.037s.018.268.021.4c.007.264.017.529.013.792,0,.13-.007.26-.016.389-.005.086-.013.172-.022.257q-.039.335.022-.158a2.839,2.839,0,0,0-.142.682c-.058.224-.127.445-.2.664a1.5,1.5,0,0,0-.132.355l.108-.257q-.051.115-.105.23a8.376,8.376,0,0,1-.428.781c-.052.084-.457.57-.435.637l.163-.21c-.053.068-.109.135-.165.2-.084.1-.171.2-.259.3a12.358,12.358,0,0,1-1.166,1.1c-.363.308.377-.263-.015.011-.112.079-.223.161-.336.239q-.344.236-.7.452a5.914,5.914,0,0,1-1.512.777c.5-.11.087-.038-.045.013s-.271.1-.408.151c-.271.1-.546.184-.823.261q-.384.106-.776.178l-.13.023q-.334.052.146-.015a1.933,1.933,0,0,0-.526.05,9.676,9.676,0,0,1-1.447-.013,1.518,1.518,0,0,0-.394-.04l.271.036q-.13-.019-.261-.042c-.3-.052-.606-.119-.9-.2q-.384-.1-.761-.232a2.455,2.455,0,0,1-.621-.235l.229.1q-.122-.054-.242-.11-.181-.085-.359-.176-.415-.212-.811-.459-.339-.21-.663-.444l-.106-.079q-.254-.191.081.065a1.4,1.4,0,0,1-.307-.254,10.974,10.974,0,0,1-1.128-1.119c-.086-.1-.169-.2-.254-.3-.293-.351.241.354-.016-.026-.148-.219-.3-.433-.438-.659s-.265-.455-.383-.691c-.059-.118-.113-.238-.169-.357-.193-.411.142.4-.008-.027a10.544,10.544,0,0,1-.435-1.536c-.029-.151-.181-.484-.015-.02a1.712,1.712,0,0,1-.042-.4c-.025-.309-.035-.62-.03-.93,0-.243.018-.486.041-.729a1.416,1.416,0,0,1,.036-.33c-.168.441-.017.138.012-.022a10.541,10.541,0,0,1,.446-1.673c.044-.126.094-.25.141-.375.16-.43-.18.368.021-.046.118-.241.23-.484.358-.72a13.22,13.22,0,0,1,.865-1.356c.266-.371-.258.3.042-.05.088-.1.172-.206.261-.307q.265-.3.551-.584t.592-.54c.067-.058.138-.113.205-.17.157-.124.139-.111-.052.04.071-.053.143-.105.215-.157a10.035,10.035,0,0,1,1.37-.814,2.291,2.291,0,0,1,.36-.167c-.442.123-.027.016.064-.019a9.093,9.093,0,0,1,.89-.281c.216-.056.435-.1.655-.144.158-.03.317-.055.476-.078-.415.06.105-.008.159-.012a12.591,12.591,0,0,1,1.992-.029c.149.01.3.025.446.038.487.041-.35-.077.129.019.242.049.483.091.723.15q.428.107.844.253c.139.049.277.1.413.157-.342-.141.219.111.277.141a8,8,0,0,1,2.737,2.208c.267.306-.178-.259.063.078.1.137.2.274.292.414q.251.376.473.771.193.344.363.7c.057.119.111.239.165.359-.114-.257.093.23.111.276a7.944,7.944,0,0,1,.719,3.122,3.369,3.369,0,0,1-.833,2.324.965.965,0,0,0,1.364,1.365Z" transform="translate(-5427.834 -2283.665)" fill="#221f1f"/></g><g transform="translate(4878.98 2408.977)"><path d="M5249.518,2676.392c9.155-.1,18.312-.109,27.466-.277q3.466-.064,6.932-.132a2.173,2.173,0,0,0,0-4.346q-13.709-.011-27.415.1-3.491.03-6.982.066a2.294,2.294,0,0,0,0,4.588Z" transform="translate(-5247.222 -2671.636)" fill="#221f1f"/></g></g></g><g transform="matrix(0.921, -0.391, 0.391, 0.921, 269.585, 97.143)"><path d="M5473.455,2339.563c-.734,1.705-1.521,3.388-2.31,5.069q-1.77,3.775-3.586,7.528-2.261,4.692-4.549,9.371-2.563,5.249-5.144,10.488-2.674,5.433-5.359,10.859-2.635,5.326-5.278,10.647-2.4,4.824-4.8,9.644c-1.336,2.683,9.618-5.38,12.352-10.948q4.588-9.347,9.148-18.709,4.167-8.562,8.283-17.147c1.909-4,3.822-7.991,5.632-12.032.261-.583.519-1.166.769-1.754a3.277,3.277,0,0,0,.3-2.3,2.989,2.989,0,0,0-3.676-2.087,2.882,2.882,0,0,0-1.786,1.373Z" transform="translate(-5377.09 -2338.075)" fill="#221f1f"/></g><g transform="matrix(0.921, -0.391, 0.391, 0.921, 329.029, 23.57)"><path d="M5552.856,2249.916c-1.294,3.825-2.39,7.727-3.512,11.606q-1.613,5.578-3.235,11.154a30.482,30.482,0,0,0-.854,3.112,10.988,10.988,0,0,0-.014,3.783l.274-2.093a3.684,3.684,0,0,0-.426,2.886,11.044,11.044,0,0,0,.7,1.707,10.531,10.531,0,0,0,1.81,2.508c1.327,1.408,2.681,2.786,3.98,4.22,1.247,1.376,2.473,2.773,3.694,4.171q.857.981,1.713,1.962c.293.335.574.692.891,1a4.246,4.246,0,0,0,2.145.989,2.492,2.492,0,0,0,2.179-.448,2.345,2.345,0,0,0,.985-1.963c-.057-.466-.1-.938-.187-1.4a4.265,4.265,0,0,0-1.188-1.936q-.677-.769-1.349-1.541-1.44-1.651-2.889-3.3-1.487-1.679-3.01-3.327c-1.058-1.137-2.248-2.2-3.206-3.42l.478.618a7.829,7.829,0,0,1-.955-1.646l.308.73c-.141-.354-.25-.715-.4-1.065a2.83,2.83,0,0,0-.707-1.088c-.167-.154-1.232-.984-.3-.218l.7,1.2c-.02-.093-.035-.187-.055-.279-.093-.426.056.277.038.3.047-.059-.036-.473-.039-.557-.005-.184,0-.368.007-.552,0-.091.013-.181.019-.273.031-.452-.095.56-.037.234.167-.932.416-1.851.636-2.772q.667-2.8,1.337-5.59c.875-3.653,1.751-7.3,2.577-10.969.508-2.254,1.022-4.5,1.428-6.777a1.833,1.833,0,0,0-3.535-.975Z" transform="translate(-5544.954 -2248.583)" fill="#221f1f"/></g><g transform="matrix(0.921, -0.391, 0.391, 0.921, 343.133, 25.604)"><path d="M5599.111,2264.615c-1.082,3.128-1.967,6.354-2.792,9.558-.862,3.346-1.719,6.693-2.634,10.025-.381,1.388-.771,2.774-1.183,4.153-.2.682-.423,1.35-.686,2.011-.154.387.127-.307.127-.3a.968.968,0,0,1-.1.217c-.142.324-.277.65-.4.979-.227.589.238-.507.057-.127-.079.165-.156.33-.243.491a5.517,5.517,0,0,0-.459.719s.48-.575.229-.3c-.049.052-.093.108-.142.16-.11.12-.228.234-.35.343-.055.049-.113.1-.169.145-.23.208.547-.39.283-.219-.134.087-.262.18-.4.263s-.292.17-.441.247c-.078.04-.158.079-.238.117-.478.225.2-.048.21-.082-.025.137-1.173.418-1.309.465l-1.68.573-3.048,1.038q-3.354,1.139-6.711,2.266-1.619.543-3.24,1.082c-.5.167-.987.351-1.476.539a4.732,4.732,0,0,0-1.626.939c-.188.173-.374.339-.572.5a2.292,2.292,0,0,0-.478,2.521,2.343,2.343,0,0,0,2.11,1.42,5.942,5.942,0,0,0,1.94-.072c.474-.125.948-.272,1.414-.424.965-.314,1.923-.65,2.884-.978q3.066-1.043,6.126-2.1,3.144-1.082,6.284-2.174a9.828,9.828,0,0,0,4.6-2.829,10.428,10.428,0,0,0,2.1-4.632c.284-1.393.66-2.771.969-4.158.746-3.358,1.434-6.728,2.121-10.1.771-3.783,1.509-7.593,2.066-11.414a1.629,1.629,0,1,0-3.141-.866Z" transform="translate(-5569.467 -2263.43)" fill="#221f1f"/></g></g></svg>